<?xml version="1.0" standalone="no"?>
<!DOCTYPE svg PUBLIC "-//W3C//DTD SVG 20010904//EN"
 "http://www.w3.org/TR/2001/REC-SVG-20010904/DTD/svg10.dtd">
<svg version="1.0" xmlns="http://www.w3.org/2000/svg"
 width="62.000000pt" height="63.000000pt" viewBox="0 0 62.000000 63.000000"
 preserveAspectRatio="xMidYMid meet">

<g transform="translate(0.000000,63.000000) scale(0.100000,-0.100000)"
fill="#000000" stroke="none">
<path d="M63 589 c-31 -11 -45 -42 -33 -73 10 -26 48 -43 75 -32 10 3 7 -7
-10 -32 -53 -81 -57 -178 -10 -266 l24 -45 -32 -3 c-56 -5 -70 -73 -21 -104
20 -13 27 -14 51 -2 23 11 28 20 28 50 l0 36 27 -19 c38 -27 104 -49 148 -49
44 0 110 22 148 49 l27 19 0 -36 c0 -30 5 -39 28 -50 24 -12 31 -11 51 2 49
31 35 99 -21 104 l-32 3 24 45 c46 87 43 185 -9 265 l-24 35 27 -4 c52 -7 85
48 53 88 -36 44 -102 20 -102 -36 l0 -23 -52 27 c-41 21 -66 27 -118 27 -52 0
-77 -6 -118 -27 l-52 -27 0 23 c0 43 -38 70 -77 55z m41 -22 c26 -19 18 -61
-13 -65 -42 -6 -62 46 -27 70 15 11 20 10 40 -5z m452 5 c35 -24 15 -76 -27
-70 -31 4 -39 46 -13 65 20 15 25 16 40 5z m-169 -37 c72 -21 136 -92 154
-168 10 -46 10 -68 -1 -115 -18 -82 -90 -154 -173 -172 -91 -21 -158 -2 -223
64 -43 42 -54 61 -64 108 -20 87 -1 157 58 220 67 72 148 93 249 63z m-269
-444 c4 -29 -20 -51 -48 -44 -45 12 -28 76 18 71 20 -2 28 -9 30 -27z m452 10
c19 -37 -16 -70 -54 -49 -16 9 -22 49 -9 61 13 14 53 6 63 -12z"/>
</g>
</svg>
