<?xml version="1.0" standalone="no"?>
<!DOCTYPE svg PUBLIC "-//W3C//DTD SVG 20010904//EN"
 "http://www.w3.org/TR/2001/REC-SVG-20010904/DTD/svg10.dtd">
<svg version="1.0" xmlns="http://www.w3.org/2000/svg"
 width="42.000000pt" height="55.000000pt" viewBox="0 0 42.000000 55.000000"
 preserveAspectRatio="xMidYMid meet">

<g transform="translate(0.000000,55.000000) scale(0.100000,-0.100000)"
fill="#000000" stroke="none">
<path d="M130 453 c0 -54 -1 -55 -18 -40 -22 20 -63 22 -80 5 -15 -15 -15 -61
0 -76 17 -17 58 -15 80 5 17 15 18 13 18 -67 0 -78 -1 -82 -17 -68 -29 24 -49
28 -72 12 -23 -17 -28 -63 -9 -82 17 -17 58 -15 80 5 17 15 18 14 18 -40 l0
-57 120 0 120 0 0 230 0 230 -120 0 -120 0 0 -57z m220 -173 l0 -220 -100 0
-100 0 0 220 0 220 100 0 100 0 0 -220z m-246 113 c8 -19 -11 -53 -29 -53 -15
0 -45 26 -45 40 0 34 62 45 74 13z m-4 -192 c15 -29 2 -51 -30 -51 -20 0 -31
6 -35 20 -14 43 44 69 65 31z"/>
</g>
</svg>
