<svg version="1.0" xmlns="http://www.w3.org/2000/svg"
 width="109.000000pt" height="66.000000pt" viewBox="0 0 109.000000 66.000000"
 preserveAspectRatio="xMidYMid meet">

<g transform="translate(0.000000,66.000000) scale(0.100000,-0.100000)">
<path d="M55 489 c4 -68 9 -127 12 -131 2 -5 59 -8 127 -8 68 0 204 -3 304 -7
l181 -6 3 -140 3 -140 150 2 c83 1 161 5 174 8 l24 6 -7 260 c-3 143 -8 263
-11 265 -2 2 -220 7 -485 10 l-482 5 7 -124z m936 82 c9 -8 19 -470 10 -475
-3 -2 -70 -7 -148 -11 l-143 -8 -1 94 c0 52 -4 117 -7 144 l-7 50 -298 6
c-164 3 -300 8 -302 11 -7 6 -23 191 -18 201 5 9 905 -3 914 -12z"/>
</g>
</svg>
