<svg version="1.1" id="Layer_1" xmlns="http://www.w3.org/2000/svg" xmlns:xlink="http://www.w3.org/1999/xlink" x="0px" y="0px"
	 width="100%" viewBox="0 0 1504 612" enable-background="new 0 0 1504 612" xml:space="preserve">
<path fill="#FEFEFE" opacity="0.000000" stroke="none"
	d="
M930.000000,613.000000
	C620.036499,613.000000 310.573029,613.000000 1.054762,613.000000
	C1.054762,409.060577 1.054762,205.121155 1.054762,1.090857
	C502.213623,1.090857 1003.427246,1.090857 1504.820435,1.090857
	C1504.820435,204.999878 1504.820435,408.999908 1504.820435,613.000000
	C1313.454224,613.000000 1121.977173,613.000000 930.000000,613.000000
M667.071899,332.356506
	C667.349915,327.760040 667.851990,323.162811 667.835938,318.567383
	C667.822754,314.807190 667.699097,310.897552 666.638550,307.348877
	C666.035095,305.329834 664.921509,301.988922 660.989868,302.181488
	C658.998291,287.667023 651.967346,275.357117 643.270325,264.091034
	C632.362122,249.960587 618.691956,239.227371 600.806702,233.301407
	C599.083862,232.745270 597.264282,232.387100 595.653870,231.600708
	C585.648743,226.714844 575.113464,224.594223 563.081299,225.099579
	C555.055847,225.159058 547.030396,225.218521 538.181641,225.085098
	C535.985901,225.329285 533.790100,225.573456 530.947388,225.675461
	C530.300171,225.791611 529.653015,225.907776 528.135742,225.860840
	C521.085266,227.897018 514.034790,229.933212 506.225464,231.993225
	C505.783112,232.224030 505.340759,232.454834 504.540955,232.505554
	C504.247101,232.539139 504.038757,232.690506 503.138397,232.939621
	C496.565430,235.996094 489.571289,238.386642 483.495758,242.229538
	C462.289917,255.642624 448.045654,274.791412 441.079132,298.744690
	C435.293610,318.637329 436.570404,339.242401 437.606079,359.702759
	C438.455811,376.489685 444.704315,391.435608 453.641418,405.224518
	C470.551514,431.314789 496.007782,444.405182 525.650696,449.791534
	C535.848083,451.644440 546.539490,450.943695 557.009827,451.096283
	C582.070190,451.461487 604.907776,444.227234 625.114319,429.550903
	C642.858154,416.663330 654.772888,399.488617 660.400452,377.323517
	C661.213684,373.988220 662.006775,370.647797 662.846497,367.319183
	C663.547058,364.542053 664.302368,361.778687 665.242737,358.649017
	C665.242737,358.649017 665.111938,358.253448 665.495300,357.563202
	C665.935974,349.472076 666.376709,341.380951 667.071899,332.356506
M274.068298,256.768646
	C274.068298,258.141388 274.068298,259.514099 274.068298,260.886841
	C274.416962,260.853119 274.765594,260.819366 275.114258,260.785645
	C274.740295,259.191772 274.366333,257.597870 273.932434,255.153397
	C273.919861,249.767532 274.188232,244.361526 273.804108,239.002304
	C273.506958,234.856964 271.419830,231.494019 267.008087,229.196457
	C262.437531,210.145004 251.753830,195.455276 234.995178,184.245056
	C226.249634,176.953873 215.092102,175.080399 205.024399,170.736160
	C196.273651,166.960175 187.308212,165.832352 177.065857,165.945999
	C132.360107,165.955719 87.654358,165.965439 42.160652,165.897903
	C41.134415,167.494507 39.362564,169.029205 39.223892,170.699493
	C38.831963,175.420197 39.121868,180.196487 39.121620,184.950867
	C39.117355,266.318298 39.110138,347.685760 39.102333,429.053192
	C39.101803,434.544159 38.892315,440.046753 39.211449,445.518768
	C39.302917,447.087036 40.909950,448.566956 41.959728,450.138794
	C41.959728,450.138794 41.887215,450.266602 41.923096,450.763977
	C41.923096,450.763977 42.302338,451.088043 42.302338,451.088043
	C42.302338,451.088043 42.801060,451.079620 43.648830,451.200409
	C44.467522,451.350372 45.285980,451.629852 46.104939,451.631317
	C67.076950,451.668945 88.049065,451.656708 109.021019,451.710510
	C112.770630,451.720123 113.082939,449.572205 113.071571,446.520081
	C112.961273,416.888031 112.963242,387.255554 112.949936,357.623199
	C112.949303,356.205658 113.105347,354.788086 113.222832,352.783356
	C128.795227,352.783356 143.920471,352.693604 159.044205,352.805786
	C178.469788,352.949921 197.579987,351.214569 215.734253,343.659943
	C220.599899,341.635162 225.485794,339.527374 230.030594,336.886627
	C247.474319,326.750977 259.940857,312.366791 266.161285,292.983093
	C267.193634,289.766113 267.400543,286.284241 268.411377,283.155396
	C268.411377,283.155396 268.834351,282.925812 269.589203,282.843597
	C270.705933,280.537109 272.530640,278.311096 272.803589,275.908722
	C273.553467,269.309052 273.652100,262.635345 274.068298,256.768646
M323.804932,451.214661
	C343.400665,451.073517 362.996368,450.932404 383.396515,450.729919
	C384.585388,446.279388 386.800659,441.831299 386.811340,437.377930
	C387.016632,351.919739 386.980927,266.460938 386.918793,181.002274
	C386.915070,175.878204 386.465515,170.731445 385.853729,165.639664
	C385.500000,162.695602 384.405670,159.840561 382.915527,156.376160
	C362.947296,156.327515 342.979065,156.278870 322.145996,156.079666
	C319.887756,156.079666 317.629517,156.079666 315.429199,156.079666
	C315.429199,254.812469 315.429199,352.665894 315.429199,450.964661
	C318.098694,450.964661 320.550232,450.964661 323.804932,451.214661
M854.211121,402.721344
	C840.555237,402.479156 826.899902,402.193787 813.243164,402.016205
	C807.831787,401.945831 803.655273,400.059662 799.575989,396.175995
	C793.927063,390.798065 793.325012,384.326691 793.292969,377.479767
	C793.155151,347.985596 793.176025,318.490662 793.013000,288.996704
	C792.992554,285.294861 793.883728,283.264893 798.015320,283.723389
	C799.989441,283.942474 802.009766,283.733765 804.009155,283.738556
	C821.338867,283.780090 838.669312,283.754425 855.997864,283.920715
	C860.396545,283.962921 862.112122,282.558075 862.023682,277.848450
	C861.773682,264.524170 862.043945,251.190399 862.069458,237.860291
	C862.071228,236.936371 861.746338,236.011826 861.459839,234.481400
	C838.692688,234.481400 816.094116,234.481400 793.006836,234.481400
	C793.006836,214.422119 793.006836,195.014771 793.006836,175.409943
	C770.604065,175.409943 748.708313,175.409943 726.494019,175.409943
	C726.379883,177.669144 726.186218,179.627731 726.197083,181.585205
	C726.281860,196.914795 726.450806,212.244064 726.498474,227.573715
	C726.521362,234.926788 726.427734,234.890381 719.275818,234.909576
	C711.778259,234.929703 704.279541,234.968704 696.784485,235.138290
	C694.912964,235.180618 693.053467,235.756500 691.350220,236.058456
	C691.487000,238.871979 691.698914,241.020752 691.677979,243.167236
	C691.564453,254.826477 691.567444,266.491486 691.142761,278.140381
	C691.003906,281.949738 692.240417,283.183533 695.843994,283.205505
	C702.658386,283.247009 709.470581,283.576141 716.284912,283.731354
	C719.390625,283.802094 722.499268,283.743378 726.408264,283.743378
	C726.408264,288.322754 726.390137,292.109955 726.411133,295.896973
	C726.592468,328.553955 726.679810,361.211914 727.015503,393.867340
	C727.155212,407.464935 732.228210,419.708008 740.056091,430.432922
	C750.080322,444.166992 765.511719,448.348145 781.338379,450.825714
	C786.894104,451.695435 792.647278,451.493011 798.308655,451.464478
	C816.797607,451.371368 835.285583,451.101135 853.774414,450.980011
	C856.996155,450.958893 858.400085,450.181396 858.308838,446.407257
	C857.986877,433.089722 858.182495,419.760315 858.009644,406.437592
	C857.994873,405.300385 856.707092,404.179688 855.516541,402.807251
	C855.343811,402.869751 855.171082,402.932251 854.211121,402.721344
M1467.234863,356.500122
	C1467.234863,252.086044 1467.234863,147.671967 1467.234863,43.026402
	C1290.512817,43.026402 1114.306152,43.026402 937.672363,43.026402
	C937.672363,219.359619 937.672363,395.389404 937.672363,571.775146
	C1114.058960,571.775146 1290.389893,571.775146 1467.234985,571.775146
	C1467.234985,500.067719 1467.234985,428.783936 1467.234863,356.500122
z"/>
<path fill="#000000" opacity="1.000000" stroke="none"
	d="
M1467.234863,357.000153
	C1467.234985,428.783936 1467.234985,500.067719 1467.234985,571.775146
	C1290.389893,571.775146 1114.058960,571.775146 937.672363,571.775146
	C937.672363,395.389404 937.672363,219.359619 937.672363,43.026402
	C1114.306152,43.026402 1290.512817,43.026402 1467.234863,43.026402
	C1467.234863,147.671967 1467.234863,252.086044 1467.234863,357.000153
M1321.674683,248.894470
	C1322.088013,247.559601 1322.501343,246.224731 1323.017212,244.102524
	C1323.241211,241.720200 1323.465210,239.337875 1323.857178,236.110779
	C1323.839600,234.103500 1323.822144,232.096222 1324.040161,229.192551
	C1323.936157,226.422058 1323.832275,223.651566 1323.794067,219.994843
	C1323.723022,217.032150 1323.651978,214.069443 1323.834229,210.446960
	C1323.603394,209.563477 1323.372559,208.679977 1323.120117,206.995148
	C1321.061279,198.109802 1321.061768,198.082687 1311.954712,197.926361
	C1309.302612,197.880844 1306.647095,198.038254 1303.070435,197.932114
	C1290.380005,197.957169 1277.689453,197.982224 1265.010010,197.260712
	C1264.411011,194.292603 1262.938477,192.339371 1258.974121,192.328384
	C1258.974121,194.337997 1258.974121,196.098846 1258.463135,197.951797
	C1258.124146,197.883957 1257.785278,197.816101 1257.192383,196.870499
	C1257.021118,195.229263 1256.691895,193.586853 1256.704224,191.947006
	C1256.779785,181.847519 1257.110718,171.745850 1256.954590,161.651138
	C1256.905273,158.466431 1255.619995,155.300827 1254.934814,151.401031
	C1252.829102,144.982620 1247.554443,144.373657 1241.876831,143.826828
	C1230.962769,142.775681 1220.155518,142.707153 1209.447021,145.377991
	C1206.642944,146.077332 1204.527344,147.361771 1204.411255,151.379028
	C1203.960205,155.641647 1203.118774,159.903992 1203.115845,164.166946
	C1203.060425,243.756500 1203.088989,323.346161 1203.168091,402.935730
	C1203.172729,407.579071 1203.755981,412.221832 1203.968140,417.572174
	C1203.975464,418.048492 1203.982788,418.524780 1203.492310,419.419067
	C1204.680054,426.240631 1209.332397,429.923340 1217.125000,429.981781
	C1227.073486,430.056335 1237.029419,429.788544 1246.969116,430.094269
	C1251.661255,430.238586 1253.344360,428.375000 1253.493530,423.809845
	C1254.302124,423.877289 1255.110718,423.944733 1255.948608,424.760101
	C1256.291504,427.551147 1256.519653,430.363647 1257.035400,433.122406
	C1257.232788,434.176941 1258.088745,435.108307 1258.711670,437.016083
	C1258.703369,442.329590 1258.694946,447.643066 1258.267700,453.441803
	C1258.440308,454.641815 1258.612915,455.841797 1258.885376,457.833923
	C1258.918701,458.898041 1258.952026,459.962189 1258.879150,461.786713
	C1259.654297,468.425079 1264.645874,471.546906 1270.070312,471.642090
	C1285.590210,471.914398 1301.246948,473.402039 1316.600464,469.747070
	C1320.004639,468.936707 1323.286011,467.270966 1322.636963,462.606049
	C1322.636963,462.606049 1322.674805,462.577515 1323.237305,462.514771
	C1323.312622,462.176178 1323.387939,461.837616 1323.672241,460.649536
	C1323.202148,448.508240 1322.731934,436.366943 1322.533447,423.660645
	C1322.292603,423.120178 1322.051636,422.579681 1321.783569,421.335907
	C1320.599609,420.498352 1319.415649,419.660828 1317.582520,418.369415
	C1316.004272,418.368958 1314.425903,418.368530 1312.089844,418.239807
	C1311.074829,418.292603 1310.059814,418.345398 1308.197388,418.069305
	C1299.192627,417.950256 1290.187744,417.831207 1280.315796,417.300842
	C1276.595215,417.273987 1272.874512,417.247131 1268.284058,416.977386
	C1267.289673,416.948792 1266.295166,416.921478 1265.300781,416.891388
	C1258.152466,416.674866 1258.113403,416.561554 1257.897583,409.677704
	C1257.806519,406.779205 1257.328735,403.892883 1256.934326,400.067413
	C1256.958740,354.044922 1256.983154,308.022461 1257.561768,261.466003
	C1257.413452,258.968719 1257.265259,256.471436 1257.063477,253.342865
	C1257.161987,252.936905 1257.260498,252.530945 1258.238403,252.041183
	C1262.487549,251.545975 1266.736816,251.050766 1271.790649,250.561752
	C1272.863159,250.557709 1273.935669,250.553680 1275.485718,251.255264
	C1286.127930,251.412460 1296.770142,251.584656 1307.412842,251.682022
	C1307.939087,251.686844 1308.471436,251.039825 1309.806885,250.666000
	C1311.410278,250.591019 1313.013550,250.516022 1315.437134,250.786240
	C1317.262451,250.165283 1319.087891,249.544327 1320.979248,249.000397
	C1320.979248,249.000397 1320.930420,248.912384 1321.674683,248.894470
M1132.378784,461.761078
	C1132.573730,461.485077 1132.768799,461.209045 1133.326294,460.377899
	C1133.763916,458.963776 1134.201416,457.549683 1134.977539,455.235352
	C1135.060181,390.438477 1135.175659,325.641602 1135.091187,260.844910
	C1135.088135,258.538361 1133.105835,256.234375 1131.834473,253.487778
	C1131.630005,253.229141 1131.389648,253.009705 1131.047119,252.158142
	C1127.594116,249.183670 1124.365845,244.032654 1120.645630,243.648804
	C1110.110596,242.561798 1099.374268,243.494965 1088.717163,243.492859
	C1083.390869,243.491806 1081.849976,246.817657 1081.200073,251.652786
	C1081.200073,251.652786 1080.938477,251.988068 1080.229248,252.102585
	C1079.510620,253.754929 1078.791992,255.407288 1077.196045,257.013855
	C1075.598999,257.104034 1074.002075,257.194214 1072.094238,257.301971
	C1071.356445,262.735138 1070.100708,267.728668 1070.088501,272.725250
	C1069.949219,329.459229 1069.901245,386.194061 1070.119019,442.927551
	C1070.147705,450.406219 1071.789551,457.863800 1076.172607,464.352509
	C1080.479126,470.728027 1086.093506,474.320801 1094.107666,474.063812
	C1102.750488,473.786682 1111.409302,474.053009 1120.060303,473.982544
	C1126.682861,473.928619 1131.708496,468.718994 1131.920288,461.936279
	C1131.920288,461.936279 1131.884399,461.917236 1132.378784,461.761078
M1080.218628,152.087997
	C1079.772583,153.043991 1079.326538,153.999985 1078.357178,154.542847
	C1077.130859,154.592087 1075.124023,154.191528 1074.796875,154.759048
	C1070.844727,161.616180 1069.404907,169.104156 1070.218506,176.950577
	C1070.466064,179.337936 1072.036499,181.699982 1071.881348,183.997986
	C1071.185547,194.302094 1077.426758,200.512207 1084.538086,206.181229
	C1085.946167,207.303787 1088.146606,207.892029 1089.995728,207.924652
	C1099.597168,208.094055 1109.203247,208.045959 1118.807251,207.988693
	C1125.108276,207.951126 1127.045044,205.060120 1125.014404,198.578964
	C1125.014404,198.578964 1125.027222,198.171021 1125.670654,198.009277
	C1126.083984,197.889420 1126.497437,197.769577 1127.557251,197.394272
	C1129.426636,196.684174 1131.296021,195.974075 1133.922119,194.967010
	C1134.255249,193.392944 1134.851074,191.823334 1134.877808,190.244095
	C1135.026611,181.450455 1134.781128,172.642563 1135.189453,163.863708
	C1135.443115,158.413956 1133.487061,154.672485 1128.898438,151.417664
	C1125.472168,145.723160 1120.276367,143.266754 1113.803467,143.400040
	C1105.857178,143.563660 1097.894043,144.332321 1089.976562,143.979645
	C1084.305786,143.727051 1081.808716,145.902451 1081.125977,151.592178
	C1081.125977,151.592178 1080.889282,151.972046 1080.218628,152.087997
z"/>
<path fill="#010101" opacity="1.000000" stroke="none"
	d="
M267.988953,282.924805
	C267.400543,286.284241 267.193634,289.766113 266.161285,292.983093
	C259.940857,312.366791 247.474319,326.750977 230.030594,336.886627
	C225.485794,339.527374 220.599899,341.635162 215.734253,343.659943
	C197.579987,351.214569 178.469788,352.949921 159.044205,352.805786
	C143.920471,352.693604 128.795227,352.783356 113.222832,352.783356
	C113.105347,354.788086 112.949303,356.205658 112.949936,357.623199
	C112.963242,387.255554 112.961273,416.888031 113.071571,446.520081
	C113.082939,449.572205 112.770630,451.720123 109.021019,451.710510
	C88.049065,451.656708 67.076950,451.668945 46.104939,451.631317
	C45.285980,451.629852 44.467522,451.350372 43.147579,450.929810
	C42.474983,450.370361 42.221947,450.239502 41.887215,450.266602
	C41.887215,450.266602 41.959728,450.138794 41.946396,449.646301
	C42.013004,356.845093 42.087902,264.536377 42.205067,172.227676
	C42.207714,170.143188 42.690033,168.059326 42.948605,165.975174
	C87.654358,165.965439 132.360107,165.955719 177.624969,166.401688
	C181.121109,167.595078 184.141647,168.100891 186.976547,169.122086
	C191.846039,170.876190 196.478378,173.396118 201.440567,174.751282
	C205.373428,175.825333 209.827484,175.029785 213.730606,176.163971
	C218.542252,177.562164 222.994614,180.167267 227.657501,182.118820
	C230.165253,183.168396 232.788544,183.941879 235.359711,184.839935
	C251.753830,195.455276 262.437531,210.145004 267.033447,229.879730
	C267.088623,230.962051 267.118439,231.361115 267.070984,232.206375
	C267.175903,234.452530 267.475616,236.249588 267.520172,238.052948
	C267.722412,246.243134 269.164917,254.692978 267.620789,262.550171
	C266.220825,269.673798 265.399872,276.156128 267.988953,282.924805
M122.779869,303.812714
	C136.088165,303.601074 149.396301,303.378998 162.704788,303.181091
	C173.382950,303.022308 181.482025,297.201324 187.871521,289.791138
	C201.684631,273.771484 200.840805,245.591599 188.781265,230.364578
	C181.262344,220.870758 171.875931,214.658112 158.992813,214.958801
	C145.852371,215.265503 132.699036,215.019073 119.551338,215.015045
	C117.448517,215.014404 115.345703,215.014954 113.129013,215.014954
	C113.129013,244.842056 113.129013,273.877136 113.129013,302.973877
	C116.227631,303.257385 119.035072,303.514252 122.779869,303.812714
z"/>
<path fill="#020102" opacity="1.000000" stroke="none"
	d="
M539.004944,225.278000
	C547.030396,225.218521 555.055847,225.159058 563.848267,225.433136
	C568.428345,226.549103 573.170959,226.169144 575.878662,228.334137
	C583.678894,234.570953 592.368652,234.283966 601.325256,233.839478
	C618.691956,239.227371 632.362122,249.960587 643.270325,264.091034
	C651.967346,275.357117 658.998291,287.667023 661.041870,302.894592
	C661.266479,304.463531 661.439087,305.319336 661.424011,306.626038
	C661.948792,312.352448 662.661316,317.628021 663.406982,323.149231
	C664.035950,321.904968 664.517151,320.953125 665.103516,320.277222
	C665.183044,320.941162 665.157471,321.329071 665.046875,322.146667
	C665.269287,324.717590 665.576660,326.858887 666.000610,329.363220
	C666.115723,330.736725 666.114258,331.747101 666.024231,333.235992
	C665.661072,341.894135 665.386475,350.073792 665.111938,358.253448
	C665.111938,358.253448 665.242737,358.649017 664.829712,358.544830
	C664.155151,353.156982 663.893677,347.873352 663.632141,342.589691
	C663.185364,342.590515 662.738586,342.591339 662.291809,342.592163
	C660.519775,354.296722 655.870728,365.761597 659.981323,377.956299
	C654.772888,399.488617 642.858154,416.663330 625.114319,429.550903
	C604.907776,444.227234 582.070190,451.461487 557.009827,451.096283
	C546.539490,450.943695 535.848083,451.644440 525.650696,449.791534
	C496.007782,444.405182 470.551514,431.314789 453.641418,405.224518
	C444.704315,391.435608 438.455811,376.489685 437.606079,359.702759
	C436.570404,339.242401 435.293610,318.637329 441.079132,298.744690
	C448.045654,274.791412 462.289917,255.642624 483.495758,242.229538
	C489.571289,238.386642 496.565430,235.996094 503.708282,232.995148
	C504.552673,233.044083 504.759399,232.922409 504.898407,232.685638
	C505.340759,232.454834 505.783112,232.224030 506.813782,232.260620
	C513.178650,236.362762 525.399963,232.683395 529.005798,226.023941
	C529.653015,225.907776 530.300171,225.791611 531.700439,225.861786
	C534.637329,225.791412 536.821167,225.534714 539.004944,225.278000
M537.273926,275.050323
	C531.203308,279.375763 525.132690,283.701202 518.488098,288.403320
	C511.426636,299.964569 505.287750,311.790833 505.756744,325.959473
	C506.048309,334.767273 505.490997,343.613770 506.016266,352.401001
	C507.047180,369.647522 513.461548,384.241516 527.496399,395.232056
	C539.843933,404.901367 554.072327,404.231415 566.842468,399.788971
	C579.506775,395.383423 588.666443,384.665833 591.915466,370.759857
	C596.397522,351.576050 595.609741,332.111115 593.145020,312.785461
	C592.371338,306.718445 589.965820,300.552032 587.010254,295.139313
	C581.959656,285.889923 574.503357,277.857025 564.211975,275.466400
	C555.901733,273.536011 546.774841,275.120758 537.273926,275.050323
z"/>
<path fill="#020202" opacity="1.000000" stroke="none"
	d="
M856.010742,403.051300
	C856.707092,404.179688 857.994873,405.300385 858.009644,406.437592
	C858.182495,419.760315 857.986877,433.089722 858.308838,446.407257
	C858.400085,450.181396 856.996155,450.958893 853.774414,450.980011
	C835.285583,451.101135 816.797607,451.371368 798.308655,451.464478
	C792.647278,451.493011 786.894104,451.695435 781.338379,450.825714
	C765.511719,448.348145 750.080322,444.166992 740.056091,430.432922
	C732.228210,419.708008 727.155212,407.464935 727.015503,393.867340
	C726.679810,361.211914 726.592468,328.553955 726.411133,295.896973
	C726.390137,292.109955 726.408264,288.322754 726.408264,283.743378
	C722.499268,283.743378 719.390625,283.802094 716.284912,283.731354
	C709.470581,283.576141 702.658386,283.247009 695.843994,283.205505
	C692.240417,283.183533 691.003906,281.949738 691.142761,278.140381
	C691.567444,266.491486 691.564453,254.826477 691.677979,243.167236
	C691.698914,241.020752 691.487000,238.871979 691.350220,236.058456
	C693.053467,235.756500 694.912964,235.180618 696.784485,235.138290
	C704.279541,234.968704 711.778259,234.929703 719.275818,234.909576
	C726.427734,234.890381 726.521362,234.926788 726.498474,227.573715
	C726.450806,212.244064 726.281860,196.914795 726.197083,181.585205
	C726.186218,179.627731 726.379883,177.669144 726.494019,175.409943
	C748.708313,175.409943 770.604065,175.409943 793.006836,175.409943
	C793.006836,195.014771 793.006836,214.422119 793.006836,234.481400
	C816.094116,234.481400 838.692688,234.481400 861.459839,234.481400
	C861.746338,236.011826 862.071228,236.936371 862.069458,237.860291
	C862.043945,251.190399 861.773682,264.524170 862.023682,277.848450
	C862.112122,282.558075 860.396545,283.962921 855.997864,283.920715
	C838.669312,283.754425 821.338867,283.780090 804.009155,283.738556
	C802.009766,283.733765 799.989441,283.942474 798.015320,283.723389
	C793.883728,283.264893 792.992554,285.294861 793.013000,288.996704
	C793.176025,318.490662 793.155151,347.985596 793.292969,377.479767
	C793.325012,384.326691 793.927063,390.798065 799.575989,396.175995
	C803.655273,400.059662 807.831787,401.945831 813.243164,402.016205
	C826.899902,402.193787 840.555237,402.479156 854.592651,403.326965
	C854.974121,416.896576 854.974121,429.860535 854.974121,442.824493
	C855.319641,442.823212 855.665222,442.821930 856.010742,442.820648
	C856.010742,429.564209 856.010742,416.307739 856.010742,403.051300
z"/>
<path fill="#010101" opacity="1.000000" stroke="none"
	d="
M382.592102,450.791260
	C362.996368,450.932404 343.400665,451.073517 323.402710,450.646515
	C322.666656,445.622742 322.044647,441.167267 322.041626,436.711426
	C321.983765,351.891907 322.006866,267.072388 321.963196,182.252853
	C321.961761,179.460052 321.352539,176.672745 321.175171,173.873459
	C320.981659,170.819443 320.647064,167.722305 320.956116,164.703568
	C321.249420,161.839020 322.295685,159.051590 323.010834,156.230240
	C342.979065,156.278870 362.947296,156.327515 383.161682,157.114975
	C383.323853,162.241562 383.239807,166.629333 383.079468,171.479477
	C382.989166,258.294495 382.974579,344.647125 382.969116,430.999786
	C382.969055,431.993469 383.086914,432.987183 383.070068,434.443481
	C382.857635,440.201141 382.724854,445.496216 382.592102,450.791260
z"/>
<path fill="#0B0A0B" opacity="1.000000" stroke="none"
	d="
M322.578430,156.154953
	C322.295685,159.051590 321.249420,161.839020 320.956116,164.703568
	C320.647064,167.722305 320.981659,170.819443 321.175171,173.873459
	C321.352539,176.672745 321.961761,179.460052 321.963196,182.252853
	C322.006866,267.072388 321.983765,351.891907 322.041626,436.711426
	C322.044647,441.167267 322.666656,445.622742 323.001129,450.521515
	C320.550232,450.964661 318.098694,450.964661 315.429199,450.964661
	C315.429199,352.665894 315.429199,254.812469 315.429199,156.079666
	C317.629517,156.079666 319.887756,156.079666 322.578430,156.154953
M319.000000,252.500000
	C319.000000,227.772339 319.000000,203.044662 319.000000,178.317001
	C318.763092,178.319458 318.526184,178.321915 318.289276,178.324356
	C318.289276,261.507233 318.289276,344.690094 318.289276,427.872986
	C318.526184,427.873077 318.763092,427.873199 319.000000,427.873322
	C319.000000,369.748871 319.000000,311.624451 319.000000,252.500000
z"/>
<path fill="#D0C9CA" opacity="1.000000" stroke="none"
	d="
M42.554626,165.936539
	C42.690033,168.059326 42.207714,170.143188 42.205067,172.227676
	C42.087902,264.536377 42.013004,356.845093 41.877563,449.620605
	C40.909950,448.566956 39.302917,447.087036 39.211449,445.518768
	C38.892315,440.046753 39.101803,434.544159 39.102333,429.053192
	C39.110138,347.685760 39.117355,266.318298 39.121620,184.950867
	C39.121868,180.196487 38.831963,175.420197 39.223892,170.699493
	C39.362564,169.029205 41.134415,167.494507 42.554626,165.936539
z"/>
<path fill="#E1DDCA" opacity="1.000000" stroke="none"
	d="
M382.994293,450.760590
	C382.724854,445.496216 382.857635,440.201141 383.334045,434.125610
	C383.784332,432.028442 383.983978,430.711792 383.984253,429.395081
	C384.001404,344.855377 384.007080,260.315674 383.969482,175.775970
	C383.968719,174.189560 383.438782,172.603394 383.155792,171.017105
	C383.239807,166.629333 383.323853,162.241562 383.526245,157.399628
	C384.405670,159.840561 385.500000,162.695602 385.853729,165.639664
	C386.465515,170.731445 386.915070,175.878204 386.918793,181.002274
	C386.980927,266.460938 387.016632,351.919739 386.811340,437.377930
	C386.800659,441.831299 384.585388,446.279388 382.994293,450.760590
z"/>
<path fill="#1E1417" opacity="1.000000" stroke="none"
	d="
M235.177444,184.542496
	C232.788544,183.941879 230.165253,183.168396 227.657501,182.118820
	C222.994614,180.167267 218.542252,177.562164 213.730606,176.163971
	C209.827484,175.029785 205.373428,175.825333 201.440567,174.751282
	C196.478378,173.396118 191.846039,170.876190 186.976547,169.122086
	C184.141647,168.100891 181.121109,167.595078 178.084625,166.484848
	C187.308212,165.832352 196.273651,166.960175 205.024399,170.736160
	C215.092102,175.080399 226.249634,176.953873 235.177444,184.542496
z"/>
<path fill="#201E22" opacity="1.000000" stroke="none"
	d="
M268.200165,283.040100
	C265.399872,276.156128 266.220825,269.673798 267.620789,262.550171
	C269.164917,254.692978 267.722412,246.243134 267.520172,238.052948
	C267.475616,236.249588 267.175903,234.452530 267.325562,232.483810
	C272.290527,245.961472 273.552490,259.901520 271.112946,274.117340
	C270.601776,277.096100 269.606537,279.991821 268.834351,282.925812
	C268.834351,282.925812 268.411377,283.155396 268.200165,283.040100
z"/>
<path fill="#1E1417" opacity="1.000000" stroke="none"
	d="
M660.190918,377.639893
	C655.870728,365.761597 660.519775,354.296722 662.291809,342.592163
	C662.738586,342.591339 663.185364,342.590515 663.632141,342.589691
	C663.893677,347.873352 664.155151,353.156982 664.725098,358.724945
	C664.302368,361.778687 663.547058,364.542053 662.846497,367.319183
	C662.006775,370.647797 661.213684,373.988220 660.190918,377.639893
z"/>
<path fill="#E1DDCA" opacity="1.000000" stroke="none"
	d="
M269.211792,282.884705
	C269.606537,279.991821 270.601776,277.096100 271.112946,274.117340
	C273.552490,259.901520 272.290527,245.961472 267.402832,232.037613
	C267.118439,231.361115 267.088623,230.962051 267.120941,230.268768
	C271.419830,231.494019 273.506958,234.856964 273.804108,239.002304
	C274.188232,244.361526 273.919861,249.767532 273.966553,255.576370
	C274.000702,255.999344 274.008484,255.990936 274.008484,255.990936
	C273.652100,262.635345 273.553467,269.309052 272.803589,275.908722
	C272.530640,278.311096 270.705933,280.537109 269.211792,282.884705
z"/>
<path fill="#201E22" opacity="1.000000" stroke="none"
	d="
M601.065979,233.570435
	C592.368652,234.283966 583.678894,234.570953 575.878662,228.334137
	C573.170959,226.169144 568.428345,226.549103 564.311768,225.510147
	C575.113464,224.594223 585.648743,226.714844 595.653870,231.600708
	C597.264282,232.387100 599.083862,232.745270 601.065979,233.570435
z"/>
<path fill="#1E1417" opacity="1.000000" stroke="none"
	d="
M528.570801,225.942383
	C525.399963,232.683395 513.178650,236.362762 507.193176,232.248703
	C514.034790,229.933212 521.085266,227.897018 528.570801,225.942383
z"/>
<path fill="#E1DDCA" opacity="1.000000" stroke="none"
	d="
M665.131836,321.717010
	C665.157471,321.329071 665.183044,320.941162 665.178101,319.851562
	C663.968994,314.825012 662.790344,310.500092 661.611755,306.175171
	C661.439087,305.319336 661.266479,304.463531 661.140991,303.281433
	C664.921509,301.988922 666.035095,305.329834 666.638550,307.348877
	C667.699097,310.897552 667.822754,314.807190 667.835938,318.567383
	C667.851990,323.162811 667.349915,327.760040 666.764160,332.695801
	C666.456360,333.035065 666.112793,332.757507 666.112793,332.757507
	C666.114258,331.747101 666.115723,330.736725 666.094116,328.954865
	C665.757935,326.027954 665.444885,323.872467 665.131836,321.717010
z"/>
<path fill="#201E22" opacity="1.000000" stroke="none"
	d="
M855.763672,402.929260
	C856.010742,416.307739 856.010742,429.564209 856.010742,442.820648
	C855.665222,442.821930 855.319641,442.823212 854.974121,442.824493
	C854.974121,429.860535 854.974121,416.896576 854.986206,403.463684
	C855.171082,402.932251 855.343811,402.869751 855.763672,402.929260
z"/>
<path fill="#1E1417" opacity="1.000000" stroke="none"
	d="
M666.024231,333.235992
	C666.112793,332.757507 666.456360,333.035065 666.636902,333.162445
	C666.376709,341.380951 665.935974,349.472076 665.303589,357.908325
	C665.386475,350.073792 665.661072,341.894135 666.024231,333.235992
z"/>
<path fill="#201E22" opacity="1.000000" stroke="none"
	d="
M538.593262,225.181549
	C536.821167,225.534714 534.637329,225.791412 532.023926,225.932861
	C533.790100,225.573456 535.985901,225.329285 538.593262,225.181549
z"/>
<path fill="#E1DDCA" opacity="1.000000" stroke="none"
	d="
M273.996521,256.001678
	C274.366333,257.597870 274.740295,259.191772 275.114258,260.785645
	C274.765594,260.819366 274.416962,260.853119 274.068298,260.886841
	C274.068298,259.514099 274.068298,258.141388 274.038391,256.379791
	C274.008484,255.990936 274.000702,255.999344 273.996521,256.001678
z"/>
<path fill="#D0C9CA" opacity="1.000000" stroke="none"
	d="
M41.905155,450.515289
	C42.221947,450.239502 42.474983,450.370361 42.723694,450.869415
	C42.801060,451.079620 42.302338,451.088043 42.302338,451.088043
	C42.302338,451.088043 41.923096,450.763977 41.905155,450.515289
z"/>
<path fill="#1E1417" opacity="1.000000" stroke="none"
	d="
M504.719666,232.595581
	C504.759399,232.922409 504.552673,233.044083 504.097046,233.005173
	C504.038757,232.690506 504.247101,232.539139 504.719666,232.595581
z"/>
<path fill="#FEFEFE" opacity="1.000000" stroke="none"
	d="
M1257.446289,197.748260
	C1257.785278,197.816101 1258.124146,197.883957 1259.082764,198.098862
	C1260.792847,198.337753 1261.883301,198.429581 1263.036133,198.849655
	C1265.102661,204.786896 1269.406860,206.955566 1275.019653,206.985123
	C1284.917725,207.037262 1294.819458,207.150467 1304.713501,206.944885
	C1310.709595,206.820282 1314.346436,209.821991 1316.796509,214.818359
	C1319.680054,220.698441 1320.553101,226.891953 1317.528320,232.820404
	C1314.051025,239.635513 1308.200928,242.764252 1300.350586,242.112152
	C1298.963989,241.996979 1297.456543,243.336380 1295.630371,244.011658
	C1294.507202,244.019089 1293.758423,244.018921 1292.718750,243.715607
	C1282.419189,243.275421 1272.410522,243.094177 1262.401855,243.084854
	C1261.596436,243.084106 1260.789795,244.265961 1259.789307,245.139114
	C1259.463501,245.969116 1259.331909,246.558273 1259.072998,247.459686
	C1258.416748,249.222931 1257.887939,250.673950 1257.359131,252.124969
	C1257.260498,252.530945 1257.161987,252.936905 1256.895752,253.871780
	C1256.646729,254.575150 1256.565430,254.749588 1256.194336,255.017593
	C1255.988647,256.084839 1256.072754,257.058502 1256.232544,258.379242
	C1256.108276,259.374420 1255.908325,260.022552 1255.375000,260.371399
	C1254.422607,258.153442 1253.803345,256.234711 1253.078491,253.988617
	C1251.556030,256.765656 1249.281494,259.047272 1249.166748,261.432770
	C1248.516479,274.950592 1248.256104,288.492096 1248.133301,302.028015
	C1248.080078,307.890350 1248.931152,313.759674 1248.904541,319.623749
	C1248.874268,326.323792 1248.115845,333.019409 1248.047119,339.720764
	C1247.933350,350.801453 1248.040894,361.886353 1248.210205,372.967133
	C1248.297729,378.698730 1248.684082,384.427124 1248.996582,390.153595
	C1249.361450,396.839478 1249.331055,403.482910 1245.290649,409.243011
	C1244.025513,411.046753 1242.264526,413.421143 1240.426270,413.731079
	C1235.070068,414.634216 1229.545044,415.054047 1224.114380,414.862793
	C1217.745605,414.638519 1214.289917,411.679993 1213.176392,405.329865
	C1212.426636,401.054321 1213.028564,396.544556 1212.997437,392.139771
	C1212.668457,345.560455 1212.206543,298.981567 1212.059448,252.401703
	C1211.994263,231.794586 1213.245605,211.164062 1212.599731,190.584946
	C1212.185913,177.398865 1210.785156,164.514404 1219.363037,152.983002
	C1220.452759,152.958405 1221.179443,152.947906 1222.338379,152.971573
	C1227.375732,153.337234 1231.976440,153.751617 1236.586548,153.980759
	C1243.478882,154.323303 1245.723999,155.418182 1247.004395,162.052872
	C1248.333130,168.937103 1248.615967,176.057327 1248.921387,183.093231
	C1249.131348,187.933868 1251.622925,191.130524 1255.083252,194.335571
	C1255.899292,195.708282 1256.672729,196.728271 1257.446289,197.748260
z"/>
<path fill="#FEFDFD" opacity="1.000000" stroke="none"
	d="
M1126.910767,197.649719
	C1126.497437,197.769577 1126.083984,197.889420 1124.882812,198.021530
	C1113.066650,197.994720 1102.038574,197.955658 1091.201538,197.664749
	C1091.468750,196.398636 1091.999023,194.817551 1091.550293,194.457855
	C1087.109009,190.898026 1085.548218,186.022522 1086.107422,180.804123
	C1087.146484,171.108505 1085.450806,160.255981 1095.784424,153.821609
	C1095.956299,153.714539 1095.870972,153.194717 1095.947266,152.923584
	C1095.988892,152.979630 1095.879883,152.892593 1096.141357,152.926102
	C1096.940918,152.619980 1097.478760,152.280350 1098.434204,151.745193
	C1102.557739,151.537735 1106.263794,151.525803 1110.000488,151.885773
	C1110.240356,152.700363 1110.472290,153.539062 1110.655640,153.528564
	C1117.467896,153.138245 1122.757080,156.051544 1127.218506,161.185974
	C1127.367554,161.675751 1127.533691,161.897675 1127.738037,162.466034
	C1127.513306,167.908295 1127.342041,172.935440 1127.072266,178.384583
	C1127.002075,180.537399 1127.030151,182.268219 1126.769775,184.283844
	C1126.624390,188.929016 1126.767578,193.289368 1126.910767,197.649719
z"/>
<path fill="#201E22" opacity="1.000000" stroke="none"
	d="
M1078.073242,257.059631
	C1078.791992,255.407288 1079.510620,253.754929 1080.607788,252.429840
	C1081.019531,253.512299 1081.052734,254.267502 1081.013916,255.484894
	C1080.939819,320.325745 1080.942383,384.704437 1080.922485,449.083099
	C1080.921387,452.730347 1080.733887,456.377563 1080.264160,459.909546
	C1079.437134,456.262085 1078.979370,452.729828 1078.368164,448.014313
	C1078.010376,451.554382 1077.772705,453.906036 1077.535034,456.257690
	C1077.050293,456.326324 1076.565552,456.394989 1076.080811,456.463623
	C1075.056152,453.137238 1073.148315,449.813599 1073.137939,446.484070
	C1072.956055,387.892487 1072.964844,329.300140 1073.111084,270.708374
	C1073.119629,267.314026 1074.652954,263.923492 1075.476685,260.531189
	C1075.998291,260.595459 1076.520020,260.659760 1077.041748,260.724060
	C1077.516724,262.802826 1077.991699,264.881561 1078.466797,266.960327
	C1078.610229,266.930176 1078.753662,266.900024 1078.897095,266.869843
	C1078.897095,264.556610 1078.897095,262.243347 1078.816650,259.715820
	C1078.570435,259.221069 1078.328979,259.043854 1078.008301,258.988159
	C1078.004639,259.006531 1078.036987,258.987579 1078.046997,258.725037
	C1078.054810,258.287292 1078.052612,258.112122 1078.057861,257.717651
	C1078.065063,257.498383 1078.073242,257.059631 1078.073242,257.059631
z"/>
<path fill="#8C878A" opacity="1.000000" stroke="none"
	d="
M1132.045898,253.929230
	C1133.105835,256.234375 1135.088135,258.538361 1135.091187,260.844910
	C1135.175659,325.641602 1135.060181,390.438477 1134.459473,455.615479
	C1133.056641,452.075897 1130.553955,449.569092 1126.965576,447.539276
	C1126.983765,389.381104 1127.003784,331.692383 1127.236816,273.807220
	C1127.318359,272.738647 1127.186768,271.866547 1127.067383,270.548462
	C1127.340088,266.389313 1127.600708,262.676086 1128.125366,258.855347
	C1129.518555,258.543732 1130.647583,258.339630 1132.045898,258.086884
	C1132.045898,256.732086 1132.045898,255.330658 1132.045898,253.929230
z"/>
<path fill="#D8D5C9" opacity="1.000000" stroke="none"
	d="
M1221.906006,152.937408
	C1221.179443,152.947906 1220.452759,152.958405 1218.925659,152.970978
	C1212.669556,152.075775 1208.665039,154.597183 1205.208008,158.258942
	C1205.480713,160.078690 1205.904419,161.706680 1205.942139,163.343597
	C1206.314209,179.468399 1206.709595,195.593552 1206.918945,211.720932
	C1207.069458,223.304565 1206.946045,234.891739 1206.947266,246.477325
	C1206.953247,298.475281 1206.920044,350.473389 1207.072144,402.470917
	C1207.080566,405.378754 1208.651855,408.273376 1209.433594,411.190796
	C1209.908203,412.962036 1210.263184,414.765320 1210.671875,416.554230
	C1210.424316,417.099640 1210.176880,417.645081 1209.929443,418.190521
	C1218.027222,418.190521 1226.124878,418.190521 1233.847778,418.363525
	C1230.305542,418.719360 1227.138184,418.902252 1223.510620,419.030792
	C1216.723633,418.272583 1210.396729,417.568726 1204.069946,416.864868
	C1203.755981,412.221832 1203.172729,407.579071 1203.168091,402.935730
	C1203.088989,323.346161 1203.060425,243.756500 1203.115845,164.166946
	C1203.118774,159.903992 1203.960205,155.641647 1205.089600,151.208344
	C1211.202026,151.195038 1216.636353,151.352402 1222.044678,151.868668
	C1221.981323,152.464157 1221.943726,152.700775 1221.906006,152.937408
z"/>
<path fill="#0B0A0B" opacity="1.000000" stroke="none"
	d="
M1078.897095,259.930115
	C1078.897095,262.243347 1078.897095,264.556610 1078.897095,266.869843
	C1078.753662,266.900024 1078.610229,266.930176 1078.466797,266.960327
	C1077.991699,264.881561 1077.516724,262.802826 1077.041748,260.724060
	C1076.520020,260.659760 1075.998291,260.595459 1075.476685,260.531189
	C1074.652954,263.923492 1073.119629,267.314026 1073.111084,270.708374
	C1072.964844,329.300140 1072.956055,387.892487 1073.137939,446.484070
	C1073.148315,449.813599 1075.056152,453.137238 1076.080811,456.463623
	C1076.565552,456.394989 1077.050293,456.326324 1077.535034,456.257690
	C1077.772705,453.906036 1078.010376,451.554382 1078.368164,448.014313
	C1078.979370,452.729828 1079.437134,456.262085 1080.378052,460.208984
	C1080.925659,461.044128 1080.990234,461.464661 1081.029297,462.197632
	C1081.322876,463.014801 1081.641968,463.519470 1081.974487,464.393127
	C1083.197144,469.844025 1087.298706,471.519684 1091.636963,471.862823
	C1097.748901,472.346252 1103.929688,472.072662 1110.075073,471.903381
	C1111.075928,471.875793 1112.045532,470.717133 1113.465820,470.061707
	C1116.227173,469.991669 1118.552124,469.941223 1121.242310,469.898163
	C1123.411987,468.281738 1125.216675,466.657928 1127.263306,464.880737
	C1127.690186,464.205627 1127.875000,463.683868 1128.372070,463.017029
	C1129.751343,462.549744 1130.818481,462.227509 1131.885620,461.905273
	C1131.708496,468.718994 1126.682861,473.928619 1120.060303,473.982544
	C1111.409302,474.053009 1102.750488,473.786682 1094.107666,474.063812
	C1086.093506,474.320801 1080.479126,470.728027 1076.172607,464.352509
	C1071.789551,457.863800 1070.147705,450.406219 1070.119019,442.927551
	C1069.901245,386.194061 1069.949219,329.459229 1070.088501,272.725250
	C1070.100708,267.728668 1071.356445,262.735138 1072.094238,257.301971
	C1074.002075,257.194214 1075.598999,257.104034 1077.634644,257.036743
	C1078.073242,257.059631 1078.065063,257.498383 1077.884277,257.818848
	C1077.632568,258.249695 1077.478027,258.426331 1077.504395,258.459625
	C1077.658447,258.654205 1077.854858,258.815216 1078.036987,258.987579
	C1078.036987,258.987579 1078.004639,259.006531 1078.096558,259.198792
	C1078.354614,259.662903 1078.590820,259.842590 1078.897095,259.930115
z"/>
<path fill="#E6E2DD" opacity="1.000000" stroke="none"
	d="
M1257.007568,261.999969
	C1256.983154,308.022461 1256.958740,354.044922 1256.739258,400.849030
	C1256.243164,404.410828 1255.668823,407.194031 1255.699463,409.970551
	C1255.758789,415.363983 1252.989258,417.313293 1248.000244,416.581604
	C1248.985352,412.170624 1250.482056,408.233398 1250.857666,404.191925
	C1251.834473,393.682068 1252.824829,383.130402 1252.906372,372.588409
	C1253.162598,339.452789 1252.911255,306.313354 1253.120605,273.177063
	C1253.146973,269.004120 1254.751343,264.841095 1255.925415,260.814331
	C1256.486694,261.303467 1256.747070,261.651733 1257.007568,261.999969
z"/>
<path fill="#F3F0EE" opacity="1.000000" stroke="none"
	d="
M1296.004883,244.004028
	C1297.456543,243.336380 1298.963989,241.996979 1300.350586,242.112152
	C1308.200928,242.764252 1314.051025,239.635513 1317.528320,232.820404
	C1320.553101,226.891953 1319.680054,220.698441 1316.796509,214.818359
	C1314.346436,209.821991 1310.709595,206.820282 1304.713501,206.944885
	C1294.819458,207.150467 1284.917725,207.037262 1275.019653,206.985123
	C1269.406860,206.955566 1265.102661,204.786896 1263.385986,198.798218
	C1264.115356,198.281464 1264.557129,198.144379 1264.999023,198.007294
	C1277.689453,197.982224 1290.380005,197.957169 1303.604736,198.370117
	C1307.901123,201.496033 1311.562744,204.342575 1315.463745,206.810669
	C1317.698486,208.224564 1320.322144,209.023483 1322.846313,210.318756
	C1322.999023,210.892960 1323.218750,211.082474 1323.580933,211.106750
	C1323.651978,214.069443 1323.723022,217.032150 1323.383911,220.535767
	C1323.250732,224.080780 1323.527588,227.084854 1323.804688,230.088943
	C1323.822144,232.096222 1323.839600,234.103500 1323.421143,236.531693
	C1321.509277,237.638824 1319.526245,237.934799 1318.645996,239.079163
	C1314.912109,243.933426 1309.878296,244.369720 1304.422119,244.048492
	C1301.625122,243.883835 1298.811157,244.009521 1296.004883,244.004028
z"/>
<path fill="#3A2F38" opacity="1.000000" stroke="none"
	d="
M1322.613647,462.647522
	C1323.286011,467.270966 1320.004639,468.936707 1316.600464,469.747070
	C1301.246948,473.402039 1285.590210,471.914398 1270.070312,471.642090
	C1264.645874,471.546906 1259.654297,468.425079 1259.239502,461.603577
	C1261.738403,461.886841 1263.876953,462.353271 1266.267212,462.893433
	C1266.689331,462.927887 1266.859741,462.888672 1267.384155,462.938049
	C1268.050659,462.765747 1268.363159,462.504852 1268.698975,462.281677
	C1268.722168,462.319397 1268.854858,462.394104 1269.206787,462.759277
	C1283.515015,463.114014 1297.471313,463.106781 1311.427612,463.062683
	C1311.641479,463.062012 1311.853760,462.605865 1312.124634,462.332092
	C1312.182495,462.301910 1312.304565,462.255585 1312.407959,462.616943
	C1313.001953,462.963867 1313.492798,462.949463 1314.312256,463.028595
	C1315.091675,463.066528 1315.542114,463.010925 1316.403809,463.040588
	C1318.747925,462.966400 1320.680786,462.806976 1322.613647,462.647522
z"/>
<path fill="#0B0A0B" opacity="1.000000" stroke="none"
	d="
M1124.987549,198.986191
	C1127.045044,205.060120 1125.108276,207.951126 1118.807251,207.988693
	C1109.203247,208.045959 1099.597168,208.094055 1089.995728,207.924652
	C1088.146606,207.892029 1085.946167,207.303787 1084.538086,206.181229
	C1077.426758,200.512207 1071.185547,194.302094 1071.881348,183.997986
	C1072.036499,181.699982 1070.466064,179.337936 1070.218506,176.950577
	C1069.404907,169.104156 1070.844727,161.616180 1074.796875,154.759048
	C1075.124023,154.191528 1077.130859,154.592087 1078.652832,155.219940
	C1078.948486,160.525101 1078.948486,165.153183 1078.948486,169.781250
	C1078.705078,169.778046 1078.461548,169.774826 1078.218140,169.771606
	C1078.032837,167.728851 1077.847534,165.686111 1077.641113,163.411163
	C1071.467285,167.678680 1071.453247,179.747589 1077.663818,190.076675
	C1077.883667,186.620880 1078.059326,183.858551 1078.235107,181.096222
	C1079.004883,184.945175 1078.834106,188.761108 1079.086182,192.548874
	C1079.192261,194.143051 1080.191650,195.677765 1080.902710,197.575531
	C1082.927490,199.027435 1085.124390,199.835587 1086.691528,201.312164
	C1093.668701,207.886414 1102.152710,205.966324 1110.287476,205.605698
	C1112.072754,205.526550 1114.459229,204.286270 1115.403198,202.826859
	C1117.828125,199.077957 1121.244751,198.869751 1124.987549,198.986191
M1074.584961,158.516403
	C1074.584961,158.516403 1074.475098,158.581421 1074.584961,158.516403
M1076.415527,192.481033
	C1076.415527,192.481033 1076.524292,192.415237 1076.415527,192.481033
z"/>
<path fill="#544F58" opacity="1.000000" stroke="none"
	d="
M1222.070557,151.509781
	C1216.636353,151.352402 1211.202026,151.195038 1205.308594,150.888519
	C1204.527344,147.361771 1206.642944,146.077332 1209.447021,145.377991
	C1220.155518,142.707153 1230.962769,142.775681 1241.876831,143.826828
	C1247.554443,144.373657 1252.829102,144.982620 1254.515015,151.799683
	C1251.042480,152.055466 1247.989624,151.912582 1244.504639,151.702209
	C1236.738403,151.593063 1229.404541,151.551422 1222.070557,151.509781
z"/>
<path fill="#5B5960" opacity="1.000000" stroke="none"
	d="
M1081.311035,251.242294
	C1081.849976,246.817657 1083.390869,243.491806 1088.717163,243.492859
	C1099.374268,243.494965 1110.110596,242.561798 1120.645630,243.648804
	C1124.365845,244.032654 1127.594116,249.183670 1130.704346,252.576904
	C1127.899170,252.373795 1125.436768,251.751923 1122.515869,251.026794
	C1113.046265,251.074600 1104.035034,251.225662 1094.625854,251.244629
	C1092.834717,251.153580 1091.441650,251.194595 1089.621338,251.108398
	C1086.566528,251.068237 1083.938843,251.155273 1081.311035,251.242294
z"/>
<path fill="#D0C9CA" opacity="1.000000" stroke="none"
	d="
M1322.625244,462.626801
	C1320.680786,462.806976 1318.747925,462.966400 1316.429199,462.673462
	C1316.079712,461.891174 1315.990845,461.449371 1316.170898,461.247498
	C1323.425537,453.114227 1320.955811,443.256866 1320.971436,433.865997
	C1320.973022,432.875854 1320.400635,431.457642 1319.629883,430.964630
	C1315.479370,428.309906 1311.513550,424.954010 1305.526733,426.007935
	C1298.039062,425.999817 1291.019531,426.003815 1283.535645,425.983826
	C1278.692993,425.933014 1274.314697,425.906189 1270.126221,425.557495
	C1273.222290,424.492340 1276.091064,423.364624 1279.041626,423.077576
	C1287.983643,422.207703 1296.965088,421.744965 1305.908691,420.888672
	C1307.023315,420.781921 1308.002686,419.262817 1309.044800,418.398193
	C1310.059814,418.345398 1311.074829,418.292603 1312.438965,418.511047
	C1312.787964,418.782288 1312.926514,419.177246 1312.992432,419.510864
	C1315.006714,422.648560 1316.731567,425.893433 1321.292236,423.991089
	C1321.483521,424.060303 1321.853394,424.233490 1321.853394,424.233490
	C1321.853394,424.233490 1322.261719,424.225647 1322.261719,424.225647
	C1322.731934,436.366943 1323.202148,448.508240 1323.363770,461.193970
	C1322.797852,461.958893 1322.671021,462.238586 1322.674805,462.577515
	C1322.674805,462.577515 1322.636963,462.606049 1322.625244,462.626801
z"/>
<path fill="#544F58" opacity="1.000000" stroke="none"
	d="
M1109.969849,151.513885
	C1106.263794,151.525803 1102.557739,151.537735 1098.193237,151.531158
	C1097.109863,151.469086 1096.684814,151.425522 1095.833496,151.208008
	C1090.697510,151.079758 1085.988037,151.125473 1081.278442,151.171173
	C1081.808716,145.902451 1084.305786,143.727051 1089.976562,143.979645
	C1097.894043,144.332321 1105.857178,143.563660 1113.803467,143.400040
	C1120.276367,143.266754 1125.472168,145.723160 1128.495605,151.716202
	C1123.194336,149.582687 1118.174927,149.113297 1112.617432,151.095154
	C1111.476196,151.240417 1110.723022,151.377151 1109.969849,151.513885
z"/>
<path fill="#A29EA0" opacity="1.000000" stroke="none"
	d="
M1259.200439,247.147430
	C1259.331909,246.558273 1259.463501,245.969116 1260.259277,245.118347
	C1271.604492,245.010132 1282.285156,245.163498 1293.302368,245.564194
	C1303.156006,245.597260 1312.673340,245.382996 1322.151611,245.503250
	C1321.718506,246.862625 1321.324463,247.887497 1320.930420,248.912384
	C1320.930420,248.912384 1320.979248,249.000397 1320.557007,248.904404
	C1318.295532,249.352631 1316.456177,249.896835 1314.616943,250.441040
	C1313.013550,250.516022 1311.410278,250.591019 1309.075928,250.433548
	C1297.232788,250.317276 1286.120483,250.433456 1275.008179,250.549622
	C1273.935669,250.553680 1272.863159,250.557709 1271.069336,250.331223
	C1266.632080,249.116272 1262.916260,248.131866 1259.200439,247.147430
z"/>
<path fill="#201E22" opacity="1.000000" stroke="none"
	d="
M1204.019043,417.218506
	C1210.396729,417.568726 1216.723633,418.272583 1223.615723,419.419006
	C1224.702271,420.209808 1225.238281,420.881622 1225.742432,420.858429
	C1235.215698,420.422791 1244.842041,422.643066 1254.882690,418.924530
	C1255.241455,420.685394 1255.580444,422.348755 1255.919434,424.012146
	C1255.110718,423.944733 1254.302124,423.877289 1252.851807,423.910767
	C1249.480225,424.078430 1246.739990,424.016296 1244.022705,424.237854
	C1237.697998,424.753540 1231.377441,425.339844 1225.068237,426.019440
	C1216.947021,426.894165 1209.686401,425.336090 1203.990234,419.001099
	C1203.982788,418.524780 1203.975464,418.048492 1204.019043,417.218506
z"/>
<path fill="#A29EA0" opacity="1.000000" stroke="none"
	d="
M1113.005371,151.086609
	C1118.174927,149.113297 1123.194336,149.582687 1128.470581,152.067154
	C1133.487061,154.672485 1135.443115,158.413956 1135.189453,163.863708
	C1134.781128,172.642563 1135.026611,181.450455 1134.877808,190.244095
	C1134.851074,191.823334 1134.255249,193.392944 1133.487061,194.707733
	C1131.053955,190.965332 1129.056152,187.482193 1127.058350,183.999054
	C1127.030151,182.268219 1127.002075,180.537399 1127.433350,178.448975
	C1128.938843,177.683044 1130.869141,177.319916 1130.892578,176.859375
	C1131.102783,172.744400 1131.158813,168.596649 1130.807373,164.497421
	C1130.730591,163.602280 1128.844360,162.862335 1127.791504,162.050903
	C1127.533691,161.897675 1127.367554,161.675751 1127.364380,160.883575
	C1129.093750,154.757202 1127.448364,152.309998 1121.766479,151.874756
	C1118.843140,151.650818 1115.925537,151.351746 1113.005371,151.086609
z"/>
<path fill="#201E22" opacity="1.000000" stroke="none"
	d="
M1125.000977,198.782578
	C1121.244751,198.869751 1117.828125,199.077957 1115.403198,202.826859
	C1114.459229,204.286270 1112.072754,205.526550 1110.287476,205.605698
	C1102.152710,205.966324 1093.668701,207.886414 1086.691528,201.312164
	C1085.124390,199.835587 1082.927490,199.027435 1080.987305,197.482483
	C1080.954102,197.053406 1081.126831,196.870514 1081.536865,196.915161
	C1084.968018,197.278748 1087.989136,197.597672 1091.010376,197.916580
	C1102.038574,197.955658 1113.066650,197.994720 1124.561035,198.102402
	C1125.027222,198.171021 1125.014404,198.578964 1125.000977,198.782578
z"/>
<path fill="#474147" opacity="1.000000" stroke="none"
	d="
M1255.934082,424.386108
	C1255.580444,422.348755 1255.241455,420.685394 1254.882690,418.924530
	C1244.842041,422.643066 1235.215698,420.422791 1225.742432,420.858429
	C1225.238281,420.881622 1224.702271,420.209808 1224.075928,419.473328
	C1227.138184,418.902252 1230.305542,418.719360 1234.285156,418.419006
	C1239.398560,417.870300 1243.699707,417.439056 1248.000977,417.007843
	C1252.989258,417.313293 1255.758789,415.363983 1255.699463,409.970551
	C1255.668823,407.194031 1256.243164,404.410828 1256.785522,401.315826
	C1257.328735,403.892883 1257.806519,406.779205 1257.897583,409.677704
	C1258.113403,416.561554 1258.152466,416.674866 1265.300781,416.891388
	C1266.295166,416.921478 1267.289673,416.948792 1268.599854,417.426331
	C1264.501099,420.172852 1260.224731,422.604828 1259.014771,428.482056
	C1258.882812,431.318726 1258.763672,433.707275 1258.644531,436.095825
	C1258.088745,435.108307 1257.232788,434.176941 1257.035400,433.122406
	C1256.519653,430.363647 1256.291504,427.551147 1255.934082,424.386108
z"/>
<path fill="#0B0A0B" opacity="1.000000" stroke="none"
	d="
M1203.741211,419.210083
	C1209.686401,425.336090 1216.947021,426.894165 1225.068237,426.019440
	C1231.377441,425.339844 1237.697998,424.753540 1244.022705,424.237854
	C1246.739990,424.016296 1249.480225,424.078430 1252.607422,424.011353
	C1253.344360,428.375000 1251.661255,430.238586 1246.969116,430.094269
	C1237.029419,429.788544 1227.073486,430.056335 1217.125000,429.981781
	C1209.332397,429.923340 1204.680054,426.240631 1203.741211,419.210083
z"/>
<path fill="#201E22" opacity="1.000000" stroke="none"
	d="
M1080.869507,197.146454
	C1080.191650,195.677765 1079.192261,194.143051 1079.086182,192.548874
	C1078.834106,188.761108 1079.004883,184.945175 1078.235107,181.096222
	C1078.059326,183.858551 1077.883667,186.620880 1077.663818,190.076675
	C1071.453247,179.747589 1071.467285,167.678680 1077.641113,163.411163
	C1077.847534,165.686111 1078.032837,167.728851 1078.218140,169.771606
	C1078.461548,169.774826 1078.705078,169.778046 1078.948486,169.781250
	C1078.948486,165.153183 1078.948486,160.525101 1078.914551,155.426514
	C1079.326538,153.999985 1079.772583,153.043991 1080.565918,152.455872
	C1080.981812,154.231171 1081.050537,155.638596 1081.083984,157.510864
	C1081.074829,170.940659 1081.100952,183.905579 1081.126953,196.870514
	C1081.126831,196.870514 1080.954102,197.053406 1080.869507,197.146454
z"/>
<path fill="#B8B4B4" opacity="1.000000" stroke="none"
	d="
M1308.621094,418.233734
	C1308.002686,419.262817 1307.023315,420.781921 1305.908691,420.888672
	C1296.965088,421.744965 1287.983643,422.207703 1279.041626,423.077576
	C1276.091064,423.364624 1273.222290,424.492340 1269.747681,425.617371
	C1268.415161,425.931488 1267.651123,425.863922 1266.936523,425.444946
	C1269.898315,423.717865 1272.702515,421.963318 1275.758667,421.091217
	C1278.034790,420.441681 1280.855103,421.300354 1281.182983,417.712158
	C1290.187744,417.831207 1299.192627,417.950256 1308.621094,418.233734
z"/>
<path fill="#D8D5C9" opacity="1.000000" stroke="none"
	d="
M1244.936890,151.769684
	C1247.989624,151.912582 1251.042480,152.055466 1254.497803,152.162415
	C1255.619995,155.300827 1256.905273,158.466431 1256.954590,161.651138
	C1257.110718,171.745850 1256.779785,181.847519 1256.704224,191.947006
	C1256.691895,193.586853 1257.021118,195.229263 1257.319336,197.309387
	C1256.672729,196.728271 1255.899292,195.708282 1255.086426,193.903412
	C1254.728027,190.332672 1254.110474,187.542572 1254.149902,184.761780
	C1254.242554,178.230469 1254.682373,171.704620 1254.880737,165.173477
	C1254.902100,164.473862 1254.375732,163.662415 1253.904175,163.058487
	C1250.946655,159.270950 1247.932373,155.527649 1244.936890,151.769684
z"/>
<path fill="#D8D5C9" opacity="1.000000" stroke="none"
	d="
M1322.770752,210.099274
	C1320.322144,209.023483 1317.698486,208.224564 1315.463745,206.810669
	C1311.562744,204.342575 1307.901123,201.496033 1304.066162,198.455368
	C1306.647095,198.038254 1309.302612,197.880844 1311.954712,197.926361
	C1321.061768,198.082687 1321.061279,198.109802 1323.034912,207.773499
	C1322.890137,209.067657 1322.830444,209.583466 1322.770752,210.099274
z"/>
<path fill="#E6E2DD" opacity="1.000000" stroke="none"
	d="
M1258.678101,436.555969
	C1258.763672,433.707275 1258.882812,431.318726 1259.270386,428.593262
	C1261.028931,428.178711 1262.519165,428.101044 1264.004639,428.446442
	C1263.001831,433.123474 1262.024292,437.382416 1261.001099,441.630341
	C1259.094482,449.546112 1264.510132,455.718018 1266.015503,462.819702
	C1263.876953,462.353271 1261.738403,461.886841 1259.292725,461.223358
	C1258.952026,459.962189 1258.918701,458.898041 1258.929443,457.034332
	C1258.877930,455.142029 1258.782227,454.049286 1258.686523,452.956573
	C1258.694946,447.643066 1258.703369,442.329590 1258.678101,436.555969
z"/>
<path fill="#8C878A" opacity="1.000000" stroke="none"
	d="
M1264.009277,428.023407
	C1262.519165,428.101044 1261.028931,428.178711 1259.283203,428.145172
	C1260.224731,422.604828 1264.501099,420.172852 1269.034668,417.547791
	C1272.874512,417.247131 1276.595215,417.273987 1280.749390,417.506500
	C1280.855103,421.300354 1278.034790,420.441681 1275.758667,421.091217
	C1272.702515,421.963318 1269.898315,423.717865 1266.804443,425.728271
	C1265.751709,426.916504 1264.880493,427.469940 1264.009277,428.023407
z"/>
<path fill="#D8D5C9" opacity="1.000000" stroke="none"
	d="
M1322.190552,245.168747
	C1312.673340,245.382996 1303.156006,245.597260 1293.317383,245.238617
	C1293.000366,244.450073 1293.005005,244.234421 1293.009644,244.018753
	C1293.758423,244.018921 1294.507202,244.019089 1295.630371,244.011627
	C1298.811157,244.009521 1301.625122,243.883835 1304.422119,244.048492
	C1309.878296,244.369720 1314.912109,243.933426 1318.645996,239.079163
	C1319.526245,237.934799 1321.509277,237.638824 1323.337158,236.954086
	C1323.465210,239.337875 1323.241211,241.720200 1322.774414,244.538651
	C1322.531616,244.974777 1322.190552,245.168747 1322.190552,245.168747
z"/>
<path fill="#D0C9CA" opacity="1.000000" stroke="none"
	d="
M1131.902954,461.920776
	C1130.818481,462.227509 1129.751343,462.549744 1127.973389,462.926422
	C1126.184814,463.006561 1125.107056,463.032257 1124.247070,462.786133
	C1125.036865,461.326202 1125.961060,460.181763 1126.114502,458.941864
	C1126.563599,455.317902 1126.705200,451.655853 1126.967285,448.008759
	C1130.553955,449.569092 1133.056641,452.075897 1134.290039,456.065613
	C1134.201416,457.549683 1133.763916,458.963776 1132.867676,460.676605
	C1132.234009,461.289276 1132.059204,461.603241 1131.884399,461.917236
	C1131.884399,461.917236 1131.920288,461.936279 1131.902954,461.920776
z"/>
<path fill="#D0C9CA" opacity="1.000000" stroke="none"
	d="
M1126.769775,184.283875
	C1129.056152,187.482193 1131.053955,190.965332 1133.108643,194.856232
	C1131.296021,195.974075 1129.426636,196.684174 1127.234009,197.522003
	C1126.767578,193.289368 1126.624390,188.929016 1126.769775,184.283875
z"/>
<path fill="#474147" opacity="1.000000" stroke="none"
	d="
M1275.246948,250.902435
	C1286.120483,250.433456 1297.232788,250.317276 1308.672974,250.448700
	C1308.471436,251.039825 1307.939087,251.686844 1307.412842,251.682022
	C1296.770142,251.584656 1286.127930,251.412460 1275.246948,250.902435
z"/>
<path fill="#D8D5C9" opacity="1.000000" stroke="none"
	d="
M1122.974243,251.130066
	C1125.436768,251.751923 1127.899170,252.373795 1130.737549,252.912567
	C1131.389648,253.009705 1131.630005,253.229141 1131.940186,253.708511
	C1132.045898,255.330658 1132.045898,256.732086 1132.045898,258.086884
	C1130.647583,258.339630 1129.518555,258.543732 1127.870361,258.620331
	C1125.892212,256.038574 1124.433228,253.584335 1122.974243,251.130066
z"/>
<path fill="#A29EA0" opacity="1.000000" stroke="none"
	d="
M1081.119263,157.046021
	C1081.050537,155.638596 1080.981812,154.231171 1080.901245,152.397888
	C1080.889282,151.972046 1081.125977,151.592178 1081.202148,151.381683
	C1085.988037,151.125473 1090.697510,151.079758 1095.791870,151.465210
	C1096.077759,152.228470 1095.978760,152.560532 1095.879883,152.892593
	C1095.879883,152.892593 1095.988892,152.979630 1095.498901,152.878601
	C1090.086182,153.247314 1084.405884,151.252365 1081.119263,157.046021
z"/>
<path fill="#B8B4B4" opacity="1.000000" stroke="none"
	d="
M1321.101074,423.921844
	C1316.731567,425.893433 1315.006714,422.648560 1313.435059,419.461945
	C1315.285156,418.994049 1316.758423,418.908691 1318.231689,418.823303
	C1319.415649,419.660828 1320.599609,420.498352 1321.585938,421.851166
	C1321.292603,422.884918 1321.196899,423.403381 1321.101074,423.921844
z"/>
<path fill="#474147" opacity="1.000000" stroke="none"
	d="
M1259.072998,247.459686
	C1262.916260,248.131866 1266.632080,249.116272 1270.666992,250.328125
	C1266.736816,251.050766 1262.487549,251.545975 1257.798828,252.083069
	C1257.887939,250.673950 1258.416748,249.222931 1259.072998,247.459686
z"/>
<path fill="#201E22" opacity="1.000000" stroke="none"
	d="
M1265.004517,197.634003
	C1264.557129,198.144379 1264.115356,198.281464 1263.323486,198.469986
	C1261.883301,198.429581 1260.792847,198.337753 1259.338379,198.052811
	C1258.974121,196.098846 1258.974121,194.337997 1258.974121,192.328384
	C1262.938477,192.339371 1264.411011,194.292603 1265.004517,197.634003
z"/>
<path fill="#D8D5C9" opacity="1.000000" stroke="none"
	d="
M1081.255615,251.447540
	C1083.938843,251.155273 1086.566528,251.068237 1089.524658,251.456238
	C1086.931885,252.961761 1084.008911,253.992233 1081.085938,255.022705
	C1081.052734,254.267502 1081.019531,253.512299 1080.962402,252.372589
	C1080.938477,251.988068 1081.200073,251.652786 1081.255615,251.447540
z"/>
<path fill="#A29EA0" opacity="1.000000" stroke="none"
	d="
M1323.922363,229.640747
	C1323.527588,227.084854 1323.250732,224.080780 1323.351074,220.978882
	C1323.832275,223.651566 1323.936157,226.422058 1323.922363,229.640747
z"/>
<path fill="#474147" opacity="1.000000" stroke="none"
	d="
M1257.284668,261.732971
	C1256.747070,261.651733 1256.486694,261.303467 1255.904053,260.804810
	C1255.581909,260.654419 1255.708374,260.670654 1255.708374,260.670654
	C1255.908325,260.022552 1256.108276,259.374420 1256.420776,258.112976
	C1256.516968,256.641113 1256.500610,255.782578 1256.484253,254.924026
	C1256.565430,254.749588 1256.646729,254.575150 1256.922607,254.187408
	C1257.265259,256.471436 1257.413452,258.968719 1257.284668,261.732971
z"/>
<path fill="#474147" opacity="1.000000" stroke="none"
	d="
M1315.027100,250.613647
	C1316.456177,249.896835 1318.295532,249.352631 1320.523926,248.865891
	C1319.087891,249.544327 1317.262451,250.165283 1315.027100,250.613647
z"/>
<path fill="#474147" opacity="1.000000" stroke="none"
	d="
M1322.151611,245.503250
	C1322.190552,245.168747 1322.531616,244.974777 1322.723145,244.932312
	C1322.501343,246.224731 1322.088013,247.559601 1321.302490,248.903412
	C1321.324463,247.887497 1321.718506,246.862625 1322.151611,245.503250
z"/>
<path fill="#8C878A" opacity="1.000000" stroke="none"
	d="
M1317.907104,418.596375
	C1316.758423,418.908691 1315.285156,418.994049 1313.369141,419.128326
	C1312.926514,419.177246 1312.787964,418.782288 1312.817871,418.575195
	C1314.425903,418.368530 1316.004272,418.368958 1317.907104,418.596375
z"/>
<path fill="#8C878A" opacity="1.000000" stroke="none"
	d="
M1321.292358,423.991089
	C1321.196899,423.403381 1321.292603,422.884918 1321.599609,422.202820
	C1322.051636,422.579681 1322.292603,423.120178 1322.397583,423.943146
	C1322.261719,424.225647 1321.853394,424.233490 1321.853394,424.233490
	C1321.853394,424.233490 1321.483521,424.060303 1321.292358,423.991089
z"/>
<path fill="#3A2F38" opacity="1.000000" stroke="none"
	d="
M1258.477051,453.199188
	C1258.782227,454.049286 1258.877930,455.142029 1258.879517,456.638245
	C1258.612915,455.841797 1258.440308,454.641815 1258.477051,453.199188
z"/>
<path fill="#A29EA0" opacity="1.000000" stroke="none"
	d="
M1322.846313,210.318756
	C1322.830444,209.583466 1322.890137,209.067657 1323.045776,208.174164
	C1323.372559,208.679977 1323.603394,209.563477 1323.707520,210.776855
	C1323.218750,211.082474 1322.999023,210.892960 1322.846313,210.318756
z"/>
<path fill="#3A2F38" opacity="1.000000" stroke="none"
	d="
M1322.956055,462.546143
	C1322.671021,462.238586 1322.797852,461.958893 1323.259277,461.618744
	C1323.387939,461.837616 1323.312622,462.176178 1322.956055,462.546143
z"/>
<path fill="#0B0A0B" opacity="1.000000" stroke="none"
	d="
M1132.131592,461.839142
	C1132.059204,461.603241 1132.234009,461.289276 1132.686279,460.954163
	C1132.768799,461.209045 1132.573730,461.485077 1132.131592,461.839142
z"/>
<path fill="#FEFDFD" opacity="1.000000" stroke="none"
	d="
M122.311188,303.791931
	C119.035072,303.514252 116.227631,303.257385 113.129013,302.973877
	C113.129013,273.877136 113.129013,244.842056 113.129013,215.014954
	C115.345703,215.014954 117.448517,215.014404 119.551338,215.015045
	C132.699036,215.019073 145.852371,215.265503 158.992813,214.958801
	C171.875931,214.658112 181.262344,220.870758 188.781265,230.364578
	C200.840805,245.591599 201.684631,273.771484 187.871521,289.791138
	C181.482025,297.201324 173.382950,303.022308 162.704788,303.181091
	C149.396301,303.378998 136.088165,303.601074 122.311188,303.791931
z"/>
<path fill="#FDFDFD" opacity="1.000000" stroke="none"
	d="
M538.010254,275.146118
	C546.774841,275.120758 555.901733,273.536011 564.211975,275.466400
	C574.503357,277.857025 581.959656,285.889923 587.010254,295.139313
	C589.965820,300.552032 592.371338,306.718445 593.145020,312.785461
	C595.609741,332.111115 596.397522,351.576050 591.915466,370.759857
	C588.666443,384.665833 579.506775,395.383423 566.842468,399.788971
	C554.072327,404.231415 539.843933,404.901367 527.496399,395.232056
	C513.461548,384.241516 507.047180,369.647522 506.016266,352.401001
	C505.490997,343.613770 506.048309,334.767273 505.756744,325.959473
	C505.287750,311.790833 511.426636,299.964569 519.083374,288.349243
	C521.658875,287.141235 523.827026,286.217712 525.581482,284.786926
	C529.648315,281.470337 536.004395,281.092590 538.010254,275.146118
z"/>
<path fill="#E6E2DD" opacity="1.000000" stroke="none"
	d="
M537.642090,275.098206
	C536.004395,281.092590 529.648315,281.470337 525.581482,284.786926
	C523.827026,286.217712 521.658875,287.141235 519.370361,288.160919
	C525.132690,283.701202 531.203308,279.375763 537.642090,275.098206
z"/>
<path fill="#1E1417" opacity="1.000000" stroke="none"
	d="
M661.424011,306.626038
	C662.790344,310.500092 663.968994,314.825012 665.072937,319.575592
	C664.517151,320.953125 664.035950,321.904968 663.406982,323.149231
	C662.661316,317.628021 661.948792,312.352448 661.424011,306.626038
z"/>
<path fill="#1E1417" opacity="1.000000" stroke="none"
	d="
M665.046875,322.146667
	C665.444885,323.872467 665.757935,326.027954 665.977478,328.591797
	C665.576660,326.858887 665.269287,324.717590 665.046875,322.146667
z"/>
<path fill="#E6E2DD" opacity="1.000000" stroke="none"
	d="
M383.079468,171.479477
	C383.438782,172.603394 383.968719,174.189560 383.969482,175.775970
	C384.007080,260.315674 384.001404,344.855377 383.984253,429.395081
	C383.983978,430.711792 383.784332,432.028442 383.413696,433.662994
	C383.086914,432.987183 382.969055,431.993469 382.969116,430.999786
	C382.974579,344.647125 382.989166,258.294495 383.079468,171.479477
z"/>
<path fill="#010101" opacity="1.000000" stroke="none"
	d="
M319.000000,253.000000
	C319.000000,311.624451 319.000000,369.748871 319.000000,427.873322
	C318.763092,427.873199 318.526184,427.873077 318.289276,427.872986
	C318.289276,344.690094 318.289276,261.507233 318.289276,178.324356
	C318.526184,178.321915 318.763092,178.319458 319.000000,178.317001
	C319.000000,203.044662 319.000000,227.772339 319.000000,253.000000
z"/>
<path fill="#F8F6ED" opacity="1.000000" stroke="none"
	d="
M1255.375000,260.371399
	C1255.708374,260.670654 1255.581909,260.654419 1255.603271,260.663940
	C1254.751343,264.841095 1253.146973,269.004120 1253.120605,273.177063
	C1252.911255,306.313354 1253.162598,339.452789 1252.906372,372.588409
	C1252.824829,383.130402 1251.834473,393.682068 1250.857666,404.191925
	C1250.482056,408.233398 1248.985352,412.170624 1248.000244,416.581604
	C1243.699707,417.439056 1239.398560,417.870300 1234.659912,418.246033
	C1226.124878,418.190521 1218.027222,418.190521 1209.929443,418.190521
	C1210.176880,417.645081 1210.424316,417.099640 1210.671875,416.554230
	C1210.263184,414.765320 1209.908203,412.962036 1209.433594,411.190796
	C1208.651855,408.273376 1207.080566,405.378754 1207.072144,402.470917
	C1206.920044,350.473389 1206.953247,298.475281 1206.947266,246.477325
	C1206.946045,234.891739 1207.069458,223.304565 1206.918945,211.720932
	C1206.709595,195.593552 1206.314209,179.468399 1205.942139,163.343597
	C1205.904419,161.706680 1205.480713,160.078690 1205.208008,158.258942
	C1208.665039,154.597183 1212.669556,152.075775 1218.562500,152.985077
	C1210.785156,164.514404 1212.185913,177.398865 1212.599731,190.584946
	C1213.245605,211.164062 1211.994263,231.794586 1212.059448,252.401703
	C1212.206543,298.981567 1212.668457,345.560455 1212.997437,392.139771
	C1213.028564,396.544556 1212.426636,401.054321 1213.176392,405.329865
	C1214.289917,411.679993 1217.745605,414.638519 1224.114380,414.862793
	C1229.545044,415.054047 1235.070068,414.634216 1240.426270,413.731079
	C1242.264526,413.421143 1244.025513,411.046753 1245.290649,409.243011
	C1249.331055,403.482910 1249.361450,396.839478 1248.996582,390.153595
	C1248.684082,384.427124 1248.297729,378.698730 1248.210205,372.967133
	C1248.040894,361.886353 1247.933350,350.801453 1248.047119,339.720764
	C1248.115845,333.019409 1248.874268,326.323792 1248.904541,319.623749
	C1248.931152,313.759674 1248.080078,307.890350 1248.133301,302.028015
	C1248.256104,288.492096 1248.516479,274.950592 1249.166748,261.432770
	C1249.281494,259.047272 1251.556030,256.765656 1253.078491,253.988617
	C1253.803345,256.234711 1254.422607,258.153442 1255.375000,260.371399
z"/>
<path fill="#F8F6ED" opacity="1.000000" stroke="none"
	d="
M1244.504639,151.702194
	C1247.932373,155.527649 1250.946655,159.270950 1253.904175,163.058487
	C1254.375732,163.662415 1254.902100,164.473862 1254.880737,165.173477
	C1254.682373,171.704620 1254.242554,178.230469 1254.149902,184.761780
	C1254.110474,187.542572 1254.728027,190.332672 1255.043945,193.550690
	C1251.622925,191.130524 1249.131348,187.933868 1248.921387,183.093231
	C1248.615967,176.057327 1248.333130,168.937103 1247.004395,162.052872
	C1245.723999,155.418182 1243.478882,154.323303 1236.586548,153.980759
	C1231.976440,153.751617 1227.375732,153.337234 1222.338379,152.971573
	C1221.943726,152.700775 1221.981323,152.464157 1222.044678,151.868668
	C1229.404541,151.551422 1236.738403,151.593063 1244.504639,151.702194
z"/>
<path fill="#F3F0EE" opacity="1.000000" stroke="none"
	d="
M1292.718750,243.715607
	C1293.005005,244.234421 1293.000366,244.450073 1292.980957,244.991287
	C1282.285156,245.163498 1271.604492,245.010132 1260.453735,244.877502
	C1260.789795,244.265961 1261.596436,243.084106 1262.401855,243.084854
	C1272.410522,243.094177 1282.419189,243.275421 1292.718750,243.715607
z"/>
<path fill="#E6E2DD" opacity="1.000000" stroke="none"
	d="
M1256.194336,255.017593
	C1256.500610,255.782578 1256.516968,256.641113 1256.345093,257.765930
	C1256.072754,257.058502 1255.988647,256.084839 1256.194336,255.017593
z"/>
<path fill="#F6F4EB" opacity="1.000000" stroke="none"
	d="
M1081.083984,157.510864
	C1084.405884,151.252365 1090.086182,153.247314 1095.457275,152.822540
	C1095.870972,153.194717 1095.956299,153.714539 1095.784424,153.821609
	C1085.450806,160.255981 1087.146484,171.108505 1086.107422,180.804123
	C1085.548218,186.022522 1087.109009,190.898026 1091.550293,194.457855
	C1091.999023,194.817551 1091.468750,196.398636 1091.201538,197.664749
	C1087.989136,197.597672 1084.968018,197.278748 1081.536865,196.915161
	C1081.100952,183.905579 1081.074829,170.940659 1081.083984,157.510864
z"/>
<path fill="#F6F4EB" opacity="1.000000" stroke="none"
	d="
M1112.617432,151.095154
	C1115.925537,151.351746 1118.843140,151.650818 1121.766479,151.874756
	C1127.448364,152.309998 1129.093750,154.757202 1127.289795,160.684448
	C1122.757080,156.051544 1117.467896,153.138245 1110.655640,153.528564
	C1110.472290,153.539062 1110.240356,152.700363 1110.000488,151.885773
	C1110.723022,151.377151 1111.476196,151.240417 1112.617432,151.095154
z"/>
<path fill="#8C878A" opacity="1.000000" stroke="none"
	d="
M1127.738037,162.466034
	C1128.844360,162.862335 1130.730591,163.602280 1130.807373,164.497421
	C1131.158813,168.596649 1131.102783,172.744400 1130.892578,176.859375
	C1130.869141,177.319916 1128.938843,177.683044 1127.531738,178.026962
	C1127.342041,172.935440 1127.513306,167.908295 1127.738037,162.466034
z"/>
<path fill="#F6F4EB" opacity="1.000000" stroke="none"
	d="
M1096.141357,152.926102
	C1095.978760,152.560532 1096.077759,152.228470 1096.218262,151.639175
	C1096.684814,151.425522 1097.109863,151.469086 1097.775757,151.726685
	C1097.478760,152.280350 1096.940918,152.619980 1096.141357,152.926102
z"/>
<path fill="#F6F4EB" opacity="1.000000" stroke="none"
	d="
M1081.013916,255.484894
	C1084.008911,253.992233 1086.931885,252.961761 1089.951660,251.583450
	C1091.441650,251.194595 1092.834717,251.153580 1094.617188,251.586334
	C1092.708008,255.103455 1089.572998,257.844788 1088.335938,261.271301
	C1086.978394,265.031769 1087.053101,269.423431 1087.047852,273.540741
	C1086.976562,329.477966 1086.974976,385.415375 1087.047363,441.352600
	C1087.053223,445.867096 1087.401978,450.441803 1088.229248,454.869324
	C1088.649292,457.118073 1090.492188,459.101013 1091.750000,461.306091
	C1090.027954,461.877258 1088.518311,462.377930 1086.614868,462.944275
	C1085.160278,462.968506 1084.099609,462.927155 1082.829834,462.694885
	C1082.098755,462.297668 1081.576782,462.091431 1081.054810,461.885162
	C1080.990234,461.464661 1080.925659,461.044128 1080.747070,460.324188
	C1080.733887,456.377563 1080.921387,452.730347 1080.922485,449.083099
	C1080.942383,384.704437 1080.939819,320.325745 1081.013916,255.484894
z"/>
<path fill="#000000" opacity="1.000000" stroke="none"
	d="
M1078.046997,258.725037
	C1077.854858,258.815216 1077.658447,258.654205 1077.504395,258.459625
	C1077.478027,258.426331 1077.632568,258.249695 1077.876953,258.038116
	C1078.052612,258.112122 1078.054810,258.287292 1078.046997,258.725037
z"/>
<path fill="#000000" opacity="1.000000" stroke="none"
	d="
M1078.816650,259.715820
	C1078.590820,259.842590 1078.354614,259.662903 1078.100098,259.180420
	C1078.328979,259.043854 1078.570435,259.221069 1078.816650,259.715820
z"/>
<path fill="#FEFEFD" opacity="1.000000" stroke="none"
	d="
M1087.008789,462.878632
	C1088.518311,462.377930 1090.027954,461.877258 1091.750000,461.306091
	C1090.492188,459.101013 1088.649292,457.118073 1088.229248,454.869324
	C1087.401978,450.441803 1087.053223,445.867096 1087.047363,441.352600
	C1086.974976,385.415375 1086.976562,329.477966 1087.047852,273.540741
	C1087.053101,269.423431 1086.978394,265.031769 1088.335938,261.271301
	C1089.572998,257.844788 1092.708008,255.103455 1095.015137,251.718414
	C1104.035034,251.225662 1113.046265,251.074600 1122.515869,251.026810
	C1124.433228,253.584335 1125.892212,256.038574 1127.606201,258.727844
	C1127.600708,262.676086 1127.340088,266.389313 1126.825684,270.734131
	C1126.722534,272.245056 1126.873169,273.124359 1127.023804,274.003693
	C1127.003784,331.692383 1126.983765,389.381104 1126.965576,447.539276
	C1126.705200,451.655853 1126.563599,455.317902 1126.114502,458.941864
	C1125.961060,460.181763 1125.036865,461.326202 1123.782104,462.868195
	C1111.069214,463.107635 1099.039062,462.993134 1087.008789,462.878632
z"/>
<path fill="#D0C9CA" opacity="1.000000" stroke="none"
	d="
M1127.236816,273.807220
	C1126.873169,273.124359 1126.722534,272.245056 1126.813477,271.180115
	C1127.186768,271.866547 1127.318359,272.738647 1127.236816,273.807220
z"/>
<path fill="#3A2F38" opacity="1.000000" stroke="none"
	d="
M1086.614868,462.944275
	C1099.039062,462.993134 1111.069214,463.107635 1123.564453,463.140076
	C1125.107056,463.032257 1126.184814,463.006561 1127.661133,463.071472
	C1127.875000,463.683868 1127.690186,464.205627 1126.884033,464.866150
	C1124.467773,466.633575 1122.672485,468.262207 1120.877197,469.890808
	C1118.552124,469.941223 1116.227173,469.991669 1112.995117,470.029297
	C1102.239990,468.734589 1091.063599,473.866486 1083.002808,463.714905
	C1083.020020,463.254181 1083.029541,463.069977 1083.038940,462.885803
	C1084.099609,462.927155 1085.160278,462.968506 1086.614868,462.944275
z"/>
<path fill="#1E1417" opacity="1.000000" stroke="none"
	d="
M1082.995117,463.991455
	C1091.063599,473.866486 1102.239990,468.734589 1112.558838,470.048889
	C1112.045532,470.717133 1111.075928,471.875793 1110.075073,471.903381
	C1103.929688,472.072662 1097.748901,472.346252 1091.636963,471.862823
	C1087.298706,471.519684 1083.197144,469.844025 1082.233154,464.383270
	C1082.650757,464.000092 1082.822998,463.995758 1082.995117,463.991455
z"/>
<path fill="#1E1417" opacity="1.000000" stroke="none"
	d="
M1121.242310,469.898193
	C1122.672485,468.262207 1124.467773,466.633575 1126.642090,465.019531
	C1125.216675,466.657928 1123.411987,468.281738 1121.242310,469.898193
z"/>
<path fill="#201E22" opacity="1.000000" stroke="none"
	d="
M1083.002808,463.714905
	C1082.822998,463.995758 1082.650757,464.000092 1082.219727,464.014282
	C1081.641968,463.519470 1081.322876,463.014801 1081.029297,462.197632
	C1081.576782,462.091431 1082.098755,462.297668 1082.829834,462.694885
	C1083.029541,463.069977 1083.020020,463.254181 1083.002808,463.714905
z"/>
<path fill="#FDFDFD" opacity="1.000000" stroke="none"
	d="
M1284.000000,426.007812
	C1291.019531,426.003815 1298.039062,425.999817 1305.591064,426.361969
	C1308.965576,428.914581 1312.737549,430.536530 1314.472656,433.394928
	C1319.386719,441.489960 1317.364868,449.788452 1313.516968,457.825104
	C1312.837769,459.243744 1312.540405,460.845245 1312.066772,462.362305
	C1311.853760,462.605865 1311.641479,463.062012 1311.427612,463.062683
	C1297.471313,463.106781 1283.515015,463.114014 1269.540161,462.493652
	C1267.400146,455.477905 1265.402100,449.184296 1265.885132,442.190887
	C1266.498535,433.309631 1270.801147,428.522369 1279.644287,427.922913
	C1281.132568,427.822052 1282.549927,426.672699 1284.000000,426.007812
z"/>
<path fill="#F3F0EE" opacity="1.000000" stroke="none"
	d="
M1283.535645,425.983826
	C1282.549927,426.672699 1281.132568,427.822052 1279.644287,427.922913
	C1270.801147,428.522369 1266.498535,433.309631 1265.885132,442.190887
	C1265.402100,449.184296 1267.400146,455.477905 1269.188232,462.128479
	C1268.854858,462.394104 1268.722168,462.319397 1268.385620,462.257355
	C1267.709351,462.413330 1267.369751,462.631378 1267.030151,462.849457
	C1266.859741,462.888672 1266.689331,462.927887 1266.267212,462.893433
	C1264.510132,455.718018 1259.094482,449.546112 1261.001099,441.630341
	C1262.024292,437.382416 1263.001831,433.123474 1264.004639,428.446442
	C1264.880493,427.469940 1265.751709,426.916504 1266.754883,426.079712
	C1267.651123,425.863922 1268.415161,425.931488 1269.557861,425.939209
	C1274.314697,425.906189 1278.692993,425.933014 1283.535645,425.983826
z"/>
<path fill="#F3F0EE" opacity="1.000000" stroke="none"
	d="
M1312.124634,462.332092
	C1312.540405,460.845245 1312.837769,459.243744 1313.516968,457.825104
	C1317.364868,449.788452 1319.386719,441.489960 1314.472656,433.394928
	C1312.737549,430.536530 1308.965576,428.914581 1306.059204,426.374084
	C1311.513550,424.954010 1315.479370,428.309906 1319.629883,430.964630
	C1320.400635,431.457642 1320.973022,432.875854 1320.971436,433.865997
	C1320.955811,443.256866 1323.425537,453.114227 1316.170898,461.247498
	C1315.990845,461.449371 1316.079712,461.891174 1316.017944,462.588196
	C1315.542114,463.010925 1315.091675,463.066528 1314.095215,462.791382
	C1313.134277,462.392273 1312.719482,462.323944 1312.304565,462.255585
	C1312.304565,462.255585 1312.182495,462.301910 1312.124634,462.332092
z"/>
<path fill="#FDFDFD" opacity="1.000000" stroke="none"
	d="
M1312.407959,462.616943
	C1312.719482,462.323944 1313.134277,462.392273 1313.766357,462.697845
	C1313.492798,462.949463 1313.001953,462.963867 1312.407959,462.616943
z"/>
<path fill="#FDFDFD" opacity="1.000000" stroke="none"
	d="
M1267.384155,462.938049
	C1267.369751,462.631378 1267.709351,462.413330 1268.362305,462.219635
	C1268.363159,462.504852 1268.050659,462.765747 1267.384155,462.938049
z"/>
<path fill="#000000" opacity="1.000000" stroke="none"
	d="
M1074.530029,158.548920
	C1074.475098,158.581421 1074.584961,158.516403 1074.530029,158.548920
z"/>
<path fill="#201E22" opacity="1.000000" stroke="none"
	d="
M1076.469971,192.448135
	C1076.524292,192.415237 1076.415527,192.481033 1076.469971,192.448135
z"/>
</svg>
