<?xml version="1.0" standalone="no"?>
<!DOCTYPE svg PUBLIC "-//W3C//DTD SVG 20010904//EN"
 "http://www.w3.org/TR/2001/REC-SVG-20010904/DTD/svg10.dtd">
<svg version="1.0" xmlns="http://www.w3.org/2000/svg"
 width="175.000000pt" height="180.000000pt" viewBox="0 0 175.000000 180.000000"
 preserveAspectRatio="xMidYMid meet">

<g transform="translate(0.000000,180.000000) scale(0.100000,-0.100000)"
fill="#000000" stroke="none">
<path d="M30 895 l0 -835 840 0 840 0 0 835 0 835 -840 0 -840 0 0 -835z
m1650 0 l0 -805 -810 0 -810 0 0 805 0 805 810 0 810 0 0 -805z"/>
<path d="M290 1597 c-46 -11 -88 -52 -102 -99 -15 -52 2 -107 47 -147 30 -26
48 -32 95 -33 3 -1 20 2 38 6 l34 6 -36 -49 c-43 -58 -88 -155 -105 -225 -16
-64 -16 -209 -1 -282 16 -76 50 -151 101 -227 30 -43 36 -58 23 -53 -76 30
-150 1 -185 -70 -50 -104 22 -210 137 -201 90 6 140 67 132 158 -5 53 0 59 27
30 24 -27 169 -98 230 -112 28 -7 100 -12 160 -12 94 0 122 4 190 27 44 15
113 49 153 76 46 31 71 43 67 32 -28 -68 -6 -139 55 -180 67 -45 170 -18 205
55 60 123 -60 246 -191 196 -13 -5 -8 7 17 43 50 67 86 143 106 217 20 76 22
231 3 307 -17 71 -63 169 -107 226 -30 41 -32 45 -12 39 40 -13 99 -7 132 14
89 55 90 187 1 241 -111 69 -257 -41 -215 -161 15 -45 14 -46 -16 -17 -45 43
-154 97 -238 118 -182 47 -396 6 -530 -100 -21 -16 -39 -30 -40 -30 -1 0 0 24
3 54 3 43 0 62 -16 88 -36 57 -98 82 -162 65z m68 -48 c63 -22 83 -103 37
-153 -23 -24 -43 -31 -90 -27 -30 3 -75 57 -75 90 0 32 32 78 64 91 28 12 28
12 64 -1z m1100 0 c63 -22 83 -103 37 -153 -23 -24 -43 -31 -90 -27 -30 3 -75
57 -75 90 0 32 32 78 64 91 28 12 28 12 64 -1z m-383 -89 c245 -94 400 -333
381 -588 -11 -155 -69 -275 -184 -383 -314 -296 -826 -159 -954 256 -25 82
-29 219 -9 305 46 191 220 369 417 425 78 23 273 14 349 -15z m-686 -1029 c64
-60 26 -161 -61 -161 -98 0 -133 121 -50 173 40 25 76 21 111 -12z m1100 0
c34 -31 41 -74 19 -114 -18 -34 -40 -46 -81 -47 -76 0 -125 90 -79 146 42 52
96 57 141 15z"/>
</g>
</svg>
