<?xml version="1.0" standalone="no"?>
<!DOCTYPE svg PUBLIC "-//W3C//DTD SVG 20010904//EN"
 "http://www.w3.org/TR/2001/REC-SVG-20010904/DTD/svg10.dtd">
<svg version="1.0" xmlns="http://www.w3.org/2000/svg"
 width="138.000000pt" height="140.000000pt" viewBox="0 0 138.000000 140.000000"
 preserveAspectRatio="xMidYMid meet">

<g transform="translate(0.000000,140.000000) scale(0.100000,-0.100000)"
fill="#000000" stroke="none">
<path d="M20 700 l0 -670 670 0 670 0 0 670 0 670 -670 0 -670 0 0 -670z
m1310 0 l0 -640 -640 0 -640 0 0 640 0 640 640 0 640 0 0 -640z"/>
<path d="M644 1309 c-26 -13 -54 -60 -54 -91 0 -12 9 -38 20 -55 l20 -33 -85
0 -85 0 0 -435 0 -435 80 0 c44 0 80 -4 80 -8 0 -5 -7 -17 -15 -28 -30 -40
-13 -109 35 -137 44 -26 78 -21 116 17 37 37 43 73 19 116 -8 14 -14 28 -15
33 0 4 36 7 80 7 l80 0 0 435 0 435 -85 0 -85 0 20 33 c28 45 25 81 -7 117
-31 34 -84 47 -119 29z m96 -49 c27 -27 25 -56 -5 -85 -32 -33 -68 -32 -95 2
-22 28 -21 63 2 90 16 20 75 16 98 -7z m140 -565 l0 -405 -192 2 -193 3 -3
403 -2 402 195 0 195 0 0 -405z m-145 -480 c29 -28 32 -55 8 -83 -30 -35 -68
-38 -97 -8 -15 14 -26 35 -26 46 0 27 43 70 70 70 12 0 32 -11 45 -25z"/>
<path d="M320 1043 c-52 -19 -83 -89 -60 -134 33 -65 107 -79 159 -30 76 71
-1 200 -99 164z m84 -55 c22 -31 20 -58 -6 -85 -44 -47 -108 -19 -108 48 0 43
17 58 67 59 22 0 37 -7 47 -22z"/>
<path d="M985 1039 c-62 -36 -74 -111 -26 -160 40 -40 89 -40 133 0 63 56 32
154 -53 167 -18 2 -43 -1 -54 -7z m89 -45 c39 -39 8 -114 -47 -114 -29 0 -67
39 -67 68 0 14 7 34 17 44 20 22 76 24 97 2z"/>
<path d="M313 785 c-41 -17 -67 -66 -59 -111 9 -45 48 -74 101 -74 36 0 48 5
69 31 35 42 35 89 -1 128 -34 36 -68 44 -110 26z m87 -45 c58 -58 -31 -148
-92 -93 -22 20 -24 76 -2 97 22 22 70 20 94 -4z"/>
<path d="M1003 793 c-34 -7 -73 -59 -73 -98 0 -52 42 -95 91 -95 51 0 85 23
99 65 16 48 -8 101 -54 120 -20 8 -37 14 -38 14 -2 -1 -13 -4 -25 -6z m72 -53
c38 -42 9 -110 -47 -110 -35 0 -68 32 -68 65 0 56 77 86 115 45z"/>
<path d="M299 527 c-58 -45 -61 -116 -8 -161 95 -80 214 52 130 143 -23 24
-37 31 -68 31 -21 0 -45 -6 -54 -13z m98 -39 c30 -28 29 -63 -3 -94 -44 -45
-104 -14 -104 52 0 58 63 83 107 42z"/>
<path d="M959 511 c-49 -49 -38 -125 23 -157 66 -34 143 12 143 88 0 33 -6 45
-33 69 -44 40 -93 40 -133 0z m109 -17 c15 -10 22 -25 22 -48 0 -64 -55 -94
-103 -56 -34 27 -36 71 -5 100 26 24 56 26 86 4z"/>
</g>
</svg>
